<svg xmlns="http://www.w3.org/2000/svg" xmlns:xlink="http://www.w3.org/1999/xlink" width="500" height="500" viewBox="0 0 500 500"><defs><clipPath id="a"><rect width="500" height="500"/></clipPath></defs><g clip-path="url(#a)"><g transform="translate(26.5 31.5)"><g transform="translate(104.75 125.85)"><path d="M62.4,41.9V19.1c0-14.6-.1-35.5-.1-61l.2.2H-62.7l.2-.2V41.9l-.2-.2,90.2.1,25.8.1h.1L27.7,42l-90.3.1h-.2V-42.1H62.8v.2c0,25.6-.1,46.6-.1,61.1V40.4A3.116,3.116,0,0,1,62.4,41.9Z" fill="#dfdfdf"/></g><g transform="translate(104.45 91.35)"><path d="M-62.6,0c0-.1,28-.2,62.6-.2s62.6.1,62.6.2S34.6.2,0,.2-62.6.1-62.6,0Z" fill="#dfdfdf"/></g><g transform="translate(45.85 87.55)"><path d="M1,0A.945.945,0,0,1,0,1,.945.945,0,0,1-1,0,.945.945,0,0,1,0-1,1,1,0,0,1,1,0Z" fill="#dfdfdf"/></g><g transform="translate(49.25 87.55)"><path d="M0-1A1,1,0,0,1,1,0,1,1,0,0,1,0,1,1,1,0,0,1-1,0,1,1,0,0,1,0-1Z" fill="#dfdfdf"/></g><g transform="translate(52.65 87.55)"><path d="M1,0A.945.945,0,0,1,0,1,.945.945,0,0,1-1,0,.945.945,0,0,1,0-1,1,1,0,0,1,1,0Z" fill="#dfdfdf"/></g><g transform="translate(69.35 116.75)"><path d="M-16.7-16.7H16.7V16.7H-16.7Z" fill="#f3a219"/></g><g transform="translate(120.849 109.55)"><path d="M29.1,0c0,.1-13,.2-29.1.2S-29.1.1-29.1,0-16.1-.2,0-.2,29.1-.1,29.1,0Z" fill="#dfdfdf"/></g><g transform="translate(120.849 115.75)"><path d="M29.1,0c0,.1-13,.2-29.1.2S-29.1.1-29.1,0-16.1-.2,0-.2,29.1-.1,29.1,0Z" fill="#dfdfdf"/></g><g transform="translate(120.849 121.95)"><path d="M29.1,0c0,.1-13,.2-29.1.2S-29.1.1-29.1,0-16.1-.2,0-.2,29.1-.1,29.1,0Z" fill="#dfdfdf"/></g><g transform="translate(108.95 128.15)"><path d="M17.2,0a6.15,6.15,0,0,1-1.4.1L12.1.2C9,.2,4.7.3,0,.3S-9,.3-12.2.2L-15.9.1A5.283,5.283,0,0,1-17.2,0a5.7,5.7,0,0,1,1.3-.1l3.7-.1C-9.1-.3-4.8-.3,0-.3s9,0,12.1.1l3.7.1A6.15,6.15,0,0,1,17.2,0Z" fill="#dfdfdf"/></g><g transform="translate(62.6 152.6)"><path d="M-7.85-7.85H7.85V7.85H-7.85Z" fill="#dfdfdf"/></g><g transform="translate(91.1 152.6)"><path d="M-7.85-7.85H7.85V7.85H-7.85Z" fill="#dfdfdf"/></g><g transform="translate(119.5 152.6)"><path d="M-7.85-7.85H7.85V7.85H-7.85Z" fill="#dfdfdf"/></g><g transform="translate(148 152.6)"><path d="M-7.85-7.85H7.85V7.85H-7.85Z" fill="#dfdfdf"/></g><g transform="translate(422.949 87.1)"><path d="M-113.518,90.67a9.655,9.655,0,0,1-2.2,2.3l.6,2.9-4.5,2-1.8-2.4a11.459,11.459,0,0,1-3.2.1l-1.6,2.5-4.6-1.8.4-2.9a9.621,9.621,0,0,1-2.3-2.2l-2.9.6-2-4.5,2.4-1.8a11.488,11.488,0,0,1-.1-3.2l-2.5-1.7,1.8-4.6,2.9.4a9.662,9.662,0,0,1,2.2-2.3l-.6-2.9,4.5-2,1.8,2.4a11.443,11.443,0,0,1,3.2-.1l1.6-2.5,4.6,1.8-.4,2.9a12.052,12.052,0,0,1,2.3,2.2l2.9-.6,2,4.5-2.4,1.8a11.413,11.413,0,0,1,.1,3.2l2.5,1.7-1.8,4.6Zm-5-5a5.2,5.2,0,0,0-3-6.8,5.2,5.2,0,0,0-6.8,3,5.2,5.2,0,0,0,3,6.8,5.159,5.159,0,0,0,6.8-3Z" fill="#dfdfdf"/></g><g transform="translate(397.999 55.75)"><path d="M-107.967,94.72a17.1,17.1,0,0,1-3.5,3.6l.9,4.6-7,3.1-2.8-3.7a16.769,16.769,0,0,1-5,.1l-2.6,3.9-7.2-2.8.7-4.6a17.085,17.085,0,0,1-3.6-3.5l-4.6.9-3.1-7,3.7-2.8a16.737,16.737,0,0,1-.1-5l-3.9-2.6,2.8-7.2,4.6.7a19.9,19.9,0,0,1,3.4-3.7l-.9-4.6,7-3.1,2.8,3.7a16.771,16.771,0,0,1,5-.1l2.6-3.9,7.2,2.8-.6,4.7a17.1,17.1,0,0,1,3.6,3.5l4.6-.9,3.1,7-3.7,2.8a16.737,16.737,0,0,1,.1,5l3.9,2.7-2.8,7.2Zm-7.8-7.9a8.355,8.355,0,0,0-4.7-10.7,8.307,8.307,0,0,0-10.7,4.7,8.355,8.355,0,0,0,4.7,10.7A8.154,8.154,0,0,0-115.767,86.82Z" fill="#dfdfdf"/></g><g transform="translate(223.15 412.55)"><path d="M222.9,0c0,.1-99.8.3-222.9.3S-222.9.2-222.9,0-123.1-.3,0-.3,222.9-.2,222.9,0Z" fill="#272526"/></g></g><g transform="translate(148 139.5)"><g transform="translate(186.5 291.7)"><path d="M-.05-17.251l-.9,22.2s22.2,8.3,22.5,12.4l-43-.1-.1-34.6Z" fill="#f59e0b"/></g><g transform="translate(172.798 296.372)"><path d="M-.448-1.622a1.683,1.683,0,0,0-1.2,2,1.636,1.636,0,0,0,2,1.2,1.858,1.858,0,0,0,1.3-2.1,1.7,1.7,0,0,0-2.2-1" fill="#fff"/></g><g transform="translate(186.608 307.25)"><path d="M-21.557,1.7V-1.8l41.4,1.4s1.9.8,1.7,2.2Z" fill="#fff"/></g><g transform="translate(184.3 297.551)"><path d="M2.05-1.1c0,.2-1,.3-2.1,1s-1.6,1.6-1.8,1.5S-1.75.1-.45-.7,2.05-1.3,2.05-1.1Z" fill="#272526"/></g><g transform="translate(189.35 299.8)"><path d="M1.5-1.55c0,.2-.9.6-1.6,1.5s-.9,1.8-1.1,1.8-.3-1.2.6-2.3S1.5-1.75,1.5-1.55Z" fill="#272526"/></g><g transform="translate(194 301.9)"><path d="M-.65,1.85c-.2,0-.5-1,.1-2.1s1.5-1.6,1.6-1.4-.5.8-1,1.7S-.35,1.749-.65,1.85Z" fill="#272526"/></g><g transform="translate(183.75 291.2)"><path d="M2.2.15c-.1.2-1-.1-2.2,0s-2.1.5-2.2.3.8-.9,2.2-1S2.3-.05,2.2.15Z" fill="#272526"/></g><g transform="translate(175.65 280.85)"><path d="M10.7-2l-.2,4-21.1-.3-.1-3.6Z"/></g><g transform="translate(182.8 285.25)"><path d="M3.25,1.6a4.108,4.108,0,0,1-2.2,0A8.083,8.083,0,0,1-1.15.9a7.51,7.51,0,0,1-1.2-.7,1.467,1.467,0,0,1-.6-.5.909.909,0,0,1-.1-1.1,1.192,1.192,0,0,1,.9-.5,2.2,2.2,0,0,1,.8.1,5.031,5.031,0,0,1,1.3.5,8.6,8.6,0,0,1,2,1.3,4.058,4.058,0,0,1,1.3,1.8c0,.1-.6-.6-1.6-1.4A11.729,11.729,0,0,0-.25-.7a5.638,5.638,0,0,0-1.2-.4c-.5-.1-.9-.1-1,.1s0,.1,0,.2a2.16,2.16,0,0,0,.5.4,6,6,0,0,0,1.1.6,18.111,18.111,0,0,0,2.1.8C1.85,1.2,2.55,1.4,3.25,1.6Z" fill="#272526"/></g><g transform="translate(186.85 283.7)"><path d="M-1.1,3.449a3.935,3.935,0,0,1-.6-2.1,9.918,9.918,0,0,1,.3-2.4,7.131,7.131,0,0,1,.5-1.3,1.771,1.771,0,0,1,1.4-1.1.961.961,0,0,1,.9.6,2.344,2.344,0,0,1,.2.8,3.751,3.751,0,0,1,0,1.5,4.3,4.3,0,0,1-.9,2.2C-.1,2.75-1,3.05-1,2.949a7.1,7.1,0,0,0,1.3-1.6,4.775,4.775,0,0,0,.7-2,2.457,2.457,0,0,0,0-1.2c-.1-.5-.2-.8-.4-.8a1.274,1.274,0,0,0-.8.7A6.145,6.145,0,0,0-.7-.75a7.778,7.778,0,0,0-.4,2.1C-1.2,2.649-1,3.449-1.1,3.449Z" fill="#272526"/></g></g><g transform="translate(147 139.5)"><g transform="translate(75.85 172.35)"><path d="M-75.1-40-49,48.1a9.3,9.3,0,0,0,8.8,6.6l106,.3a9.816,9.816,0,0,0,9.8-9.8v-.5a9.855,9.855,0,0,0-9.8-9.3H25.3L-7.1-55H-63.9A11.715,11.715,0,0,0-75.6-43.3,12.573,12.573,0,0,0-75.1-40Z" fill="#455a63"/></g><g transform="translate(66.35 215.05)"><path d="M24.1,0C24.1.2,13.3.4,0,.4S-24.1.2-24.1,0-13.3-.4,0-.4,24.1-.2,24.1,0Z" fill="#272526"/></g><g transform="translate(24.3 167.45)"><path d="M-15.75-47.3c.2-.1,7.4,21,16.1,47.2s15.6,47.3,15.4,47.4S8.35,26.3-.35.1-15.95-47.2-15.75-47.3Z" fill="#272526"/></g><g transform="translate(82.75 266.25)"><path d="M3.2,39.2-3.2,39V-39.2H3.2Z" fill="#455a63"/></g><g transform="translate(82.8 300.35)"><path d="M-30.05,4.7h60.1L2.85-4.7h-6.5Z" fill="#455a63"/></g><g transform="translate(88.2 125.2)"><path d="M-50.75-28.05l9.9,49.7-1.8,37.2,66.9-11.1-2.6-32.6-.1-27,16.4,31.8,12.8-24.7-23.4-42.4a40.83,40.83,0,0,0-15.3-9.9,31.376,31.376,0,0,0-9.6-1.8,37.956,37.956,0,0,1-23.1,0c-.9.1-2.2.2-3.9.4h-.3a29.511,29.511,0,0,0-25.8,27.8Z" fill="#f59e0b"/></g><g transform="translate(48.05 92.1)"><path d="M15.7-25.25s-27.5.2-30.9,29.2l-.5,21.3L8,25.05Z" fill="#f59e0b"/></g><g transform="translate(81.1 104.15)"><path d="M48.25,0c0,.2-21.6.4-48.3.4S-48.25.2-48.25,0-26.65-.4.05-.4,48.25-.2,48.25,0Z" fill="#f9f9f9"/></g><g transform="translate(81.05 108.75)"><path d="M48.3,0C48.3.2,26.7.4,0,.4S-48.3.2-48.3,0-26.7-.4,0-.4,48.3-.2,48.3,0Z" fill="#f9f9f9"/></g><g transform="translate(80.35 100.35)"><path d="M47.5,0C47.5.2,26.2.4,0,.4S-47.5.2-47.5,0-26.2-.4,0-.4,47.5-.2,47.5,0Z" fill="#f9f9f9"/></g><g transform="translate(110.15 118.85)"><path d="M-.6,26.3c-.2,0-.1-11.8.2-26.3S.4-26.3.6-26.3.7-14.5.4,0-.4,26.3-.6,26.3Z" fill="#272526"/></g><g transform="translate(79.5 75.7)"><path d="M12.85-8.85a4.2,4.2,0,0,1,.2.5,8.331,8.331,0,0,1,.4,1.5,11.759,11.759,0,0,1-.2,5.6,15.411,15.411,0,0,1-4.5,7,14.393,14.393,0,0,1-9.5,3.6,12.825,12.825,0,0,1-9.4-3.8,12.774,12.774,0,0,1-3.5-7.6,11.9,11.9,0,0,1,.7-5.6,9.143,9.143,0,0,1,.7-1.4,2.958,2.958,0,0,1,.3-.4s-.3.7-.7,1.9a12.4,12.4,0,0,0-.4,5.4,13.218,13.218,0,0,0,3.5,7.2,12.9,12.9,0,0,0,8.9,3.6,13.877,13.877,0,0,0,9.1-3.4,14.522,14.522,0,0,0,4.5-6.7,14.194,14.194,0,0,0,.5-5.4A10.394,10.394,0,0,1,12.85-8.85Z" fill="#272526"/></g><g transform="translate(146.8 307.3)"><path d="M-2.15-25.75l9.9,27.3,14.1,19.3a3.041,3.041,0,0,1-.7,4.2l-.1.1a2.87,2.87,0,0,1-2.7.2c-5.7-2.4-26.5-11.1-27.1-13.1-.7-2.4-14.1-31.7-14.1-31.7Z" fill="#f59e0b"/></g><g transform="translate(152.6 325.34)"><path d="M15.25,7.11l-30.5-14.7.5,1.1a4.522,4.522,0,0,0,2,2.3c2.5,1.4,9.5,4.9,25.2,11.5A2.815,2.815,0,0,0,15.25,7.11Z" fill="#fff"/></g><g transform="translate(139.051 308.519)"><path d="M.4-1.669a1.785,1.785,0,0,1,1.3,2,1.7,1.7,0,0,1-2,1.3,1.969,1.969,0,0,1-1.4-2.1,1.755,1.755,0,0,1,2.2-1.1" fill="#fff"/></g><g transform="translate(159.2 320.55)"><path d="M-2.15,2.5a8.668,8.668,0,0,1,1.6-3c1.3-1.4,2.9-1.6,2.9-1.8s-.4-.1-1.1,0a4.614,4.614,0,0,0-3.4,3.7C-2.35,2.1-2.251,2.5-2.15,2.5Z" fill="#272526"/></g><g transform="translate(162.5 324.151)"><path d="M-2.15,1.8c.2.1.7-1.1,1.9-2.1a20.13,20.13,0,0,1,2.5-1.4c0-.2-1.5-.2-2.9.9A3.349,3.349,0,0,0-2.15,1.8Z" fill="#272526"/></g><g transform="translate(154.8 316.85)"><path d="M-3.15,3c.2.1,1-1.8,2.8-3.4s3.7-2.3,3.6-2.5-2.2.2-4.1,2S-3.35,2.9-3.15,3Z" fill="#272526"/></g><g transform="translate(151.35 310.15)"><path d="M-3.4,1.6A34.494,34.494,0,0,1-.1-.3,34.777,34.777,0,0,1,3.5-1.4,6.533,6.533,0,0,0-.4-.8C-2.5.1-3.5,1.5-3.4,1.6Z" fill="#272526"/></g><g transform="translate(148.45 302.25)"><path d="M-3.6,1.6A12.19,12.19,0,0,1-.2-.5C1.9-1.2,3.7-.8,3.7-1s-.4-.3-1.2-.4A6.3,6.3,0,0,0-3,.5C-3.5,1.1-3.7,1.5-3.6,1.6Z" fill="#272526"/></g><g transform="translate(146.3 297.6)"><path d="M1.251,2.651a3.017,3.017,0,0,0-.4-1,8.755,8.755,0,0,0-1.9-2.4,3.514,3.514,0,0,0-1.9-1,1.387,1.387,0,0,0-1.2.7,1.694,1.694,0,0,0,0,1.4,4.144,4.144,0,0,0,4.9,2.3,4.7,4.7,0,0,0,3.5-4.1,1.477,1.477,0,0,0-.4-1.3,1.194,1.194,0,0,0-1.4-.1,4.273,4.273,0,0,0-1.4,1.6,9.368,9.368,0,0,0-1,2.8,2.062,2.062,0,0,0,0,1.1,13.078,13.078,0,0,1,1.5-3.7,3.486,3.486,0,0,1,1.3-1.4.806.806,0,0,1,.8.1,1.014,1.014,0,0,1,.2.9,4.31,4.31,0,0,1-3.1,3.5,3.575,3.575,0,0,1-4.1-1.9,1.187,1.187,0,0,1-.1-1,.619.619,0,0,1,.6-.4,3.044,3.044,0,0,1,1.6.8A10.38,10.38,0,0,1,1.251,2.651Z" fill="#272526"/></g><g transform="translate(149.3 229.9)"><path d="M15.751-61.751c-25.4,2.6-59.1,6.1-59.1,6.1l4.6,41.4s49.5-13.1,49.2-12,2.3,88.1,2.3,88.1h29.8l.6-98.5a24.712,24.712,0,0,0-24.4-25.1A15.028,15.028,0,0,0,15.751-61.751Z" fill="#272526"/></g><g transform="translate(101.4 230.1)"><path d="M-56.35-45.25v12.8c0,8.7,9.9,18,18.7,18h6.8c5.3,0,13.7-3.9,18-7l2.6-1.9,31.1,96.2s35.5-6.4,35.5-7.5-24.1-78.8-35.2-114.9c-4.5-14.7-20.3-23.3-34.9-18.3l-1.5.6C-31.25-60.75-56.35-45.25-56.35-45.25Z" fill="#272526"/></g><g transform="translate(131.8 229.2)"><path d="M25.85,66.35a.368.368,0,0,1-.1-.3,6.85,6.85,0,0,0-.4-1c-.3-.9-.8-2.2-1.4-4-1.2-3.5-2.8-8.5-4.8-14.8-4-12.5-9.3-29.9-15.1-49.1-2.9-9.6-5.6-18.8-8.1-27.1-1.2-4.2-2.4-8.1-3.5-11.8-.6-1.9-1.1-3.6-1.6-5.4-.5-1.7-1-3.3-1.6-4.9a19.523,19.523,0,0,0-5-7.1,35.757,35.757,0,0,0-5.3-4.1c-1.5-1-2.7-1.8-3.6-2.3l-.9-.6c-.1-.1-.2-.1-.3-.2.1,0,.2.1.3.2l1,.5c.9.5,2.1,1.2,3.6,2.2a41.786,41.786,0,0,1,5.4,4,19.589,19.589,0,0,1,5.2,7.2c.6,1.6,1.2,3.2,1.7,4.9s1.1,3.5,1.6,5.4l3.6,11.8c2.5,8.3,5.3,17.5,8.2,27.1,5.8,19.2,11,36.5,14.8,49.2l4.6,14.9,1.3,4a6.128,6.128,0,0,0,.3,1A.769.769,0,0,1,25.85,66.35Z" fill="#455a63"/></g><g transform="translate(162.5 197.45)"><path d="M2.65-6.2c.2.1-1.5,2.7-2.9,6.1s-2,6.4-2.3,6.4.1-3.1,1.6-6.7S2.45-6.3,2.65-6.2Z" fill="#455a63"/></g><g transform="translate(165.95 199)"><path d="M4.9-3.75c.1.2-2.5,1.3-5.1,3.4s-4.4,4.3-4.6,4.2,1.3-2.6,4.1-4.8S4.8-3.95,4.9-3.75Z" fill="#455a63"/></g><g transform="translate(104.1 245.5)"><path d="M18.35,57.55c-.2.1-8.6-25.7-18.7-57.5s-18.2-57.7-18-57.7S-9.75-31.95.35-.15,18.55,57.449,18.35,57.55Z" fill="#455a63"/></g></g><g transform="translate(148 139.5)"><g transform="translate(110.6 135.6)"><path d="M-12.45-9.3s15,.649,17.3,4.149,5.9,13.2,4.6,13.3a3.688,3.688,0,0,1-2.3-.7l-3.6-6.3s.6,6.1-1.6,6.2-14.45,2.7-14.45,2.7Z" fill="#ffbd9d"/></g><g transform="translate(66.25 134.05)"><path d="M-33.8-22.4l-.1,33.5a12.736,12.736,0,0,0,13.4,12,6.448,6.448,0,0,0,2-.3L33.9,12,33.8-9.5-11.4-.7-12-23.5Z" fill="#f59e0b"/></g><g transform="translate(77.45 127.1)"><path d="M-15.1,27.15c.2-.1.5-.1.7-.2l2-.5,7.7-1.6,27.3-5.6-.3.3V-2.55l.4.4L13.5-.35l-36,6.9-.4.1v-.4c.3-10,.6-18.3.8-24.2.1-2.9.2-5.1.3-6.8,0-.7.1-1.3.1-1.8a1.266,1.266,0,0,1,.1-.6v2.4c0,1.6-.1,3.9-.1,6.8-.1,5.9-.3,14.2-.6,24.2l-.4-.3,36-7,9.2-1.8.4-.1v22.9h-.3l-27.2,5.3-7.7,1.5-2.1.4Z" fill="#272526"/></g><g transform="translate(95.35 136.699)"><path d="M-.4,11.25a18.188,18.188,0,0,1,0-3.3c.1-2,.2-4.8.2-7.9s0-5.9-.1-8a18.2,18.2,0,0,1,0-3.3,12.581,12.581,0,0,1,.5,3.3c.2,2,.3,4.9.3,8s-.2,5.9-.4,8C0,9.051-.2,10.15-.4,11.25Z" fill="#f9f9f9"/></g><g transform="translate(92.4 137.25)"><path d="M-.25,11.2a18.2,18.2,0,0,1-.1-3.3c0-2.3.1-5,.1-7.9V-7.9a18.2,18.2,0,0,1,.1-3.3,12.415,12.415,0,0,1,.4,3.3c.1,2,.2,4.8.2,7.9S.35,5.9.15,7.9A9.341,9.341,0,0,1-.25,11.2Z" fill="#f9f9f9"/></g></g><g transform="translate(148 139.5)"><g transform="translate(144.65 127.149)"><path d="M-60.3,25.8l101.6,1,19-53.6-74,.5L-30.8,21.9l-29.5.4Z" fill="#455a63"/></g><g transform="translate(161.95 127.65)"><path d="M-.6,4.1A4.105,4.105,0,0,1-4.1-.6,4.1,4.1,0,0,1,.6-4.1,4.1,4.1,0,0,1,4.1.6,4.178,4.178,0,0,1-.6,4.1Z" fill="#fff"/></g></g><g transform="translate(148 139.5)"><g transform="translate(89.15 21.95)"><path d="M-13.1-14c1-3.6,3.6-5.3,7.1-6.5A11.287,11.287,0,0,1,4.5-18.8c2,1.5,3.5,3.7,5.8,4.5,3.8,1.3,8.3-1.5,12,.2a5.234,5.234,0,0,1,2.6,6.9,5.271,5.271,0,0,1-5.1,3.1c2.5.9,3.3,4.5,1.8,6.7a7.086,7.086,0,0,1-7.1,2.6A14.462,14.462,0,0,1,7.6,1.3C5.6-.5,3.8-2.5,1.7-4.1A11.812,11.812,0,0,0-5.7-6.8c-3.6.2-6.7,2.9-8.3,6.1s-2,6.9-2.2,10.5-.3,7.3-1.3,10.7c-.1.4-.3.9-.7,1-.6.2-1.1-.4-1.4-1A54.5,54.5,0,0,1-25.7.8c-.4-4-.3-7.8,1.9-11.1S-15.9-16.2-13.1-14Z" fill="#272526"/></g><g transform="translate(85.65 43.75)"><path d="M-16.6-19.1l-1.9,40.5c-.3,6.9.6,17.1,11.5,17.1,9.5-.7,12.2-9.6,12.5-16,.1-3,.2-5.6.3-5.9,0,0,10.3-.5,11.6-10.7.6-4.9,1-15.1,1.2-24.4a19,19,0,0,0-17-19.4L.6-38C-10-38.5-16.4-29.8-16.6-19.1Z" fill="#ffbd9d"/></g><g transform="translate(85.2 58.85)"><path d="M6.45,1.3A23.673,23.673,0,0,1-6.45-3.9s2.4,7.6,12.6,7.8Z" fill="#eb996d"/></g><g transform="translate(99.087 31.7)"><path d="M1.5.05A1.456,1.456,0,0,1-.1,1.35,1.43,1.43,0,0,1-1.5-.05,1.456,1.456,0,0,1,.1-1.35,1.367,1.367,0,0,1,1.5.05Z" fill="#272526"/></g><g transform="translate(98.8 29.2)"><path d="M2.85.85c-.2.2-1.2-.8-2.8-.9s-2.8.5-2.9.3.1-.4.7-.7a4.025,4.025,0,0,1,2.4-.5,3.719,3.719,0,0,1,2.2,1C2.75.35,2.95.75,2.85.85Z" fill="#272526"/></g><g transform="translate(83.75 30.55)"><path d="M1.5.1A1.456,1.456,0,0,1-.1,1.4,1.453,1.453,0,0,1-1.5-.1,1.456,1.456,0,0,1,.1-1.4,1.52,1.52,0,0,1,1.5.1Z" fill="#272526"/></g><g transform="translate(83.35 27.8)"><path d="M2.9.85c-.2.2-1.2-.8-2.8-.9s-2.8.5-2.9.3.1-.4.7-.7A4.025,4.025,0,0,1,.3-.95a3.719,3.719,0,0,1,2.2,1A2.5,2.5,0,0,1,2.9.85Z" fill="#272526"/></g><g transform="translate(92.75 34.45)"><path d="M-2.1,6.4A11.4,11.4,0,0,1,.5,6.2c.4,0,.8,0,.9-.3a2.462,2.462,0,0,0-.1-1.2C1,3.7.7,2.6.4,1.5-.8-3-1.6-6.7-1.4-6.7S-.1-3.1,1.1,1.4c.3,1.1.6,2.2.8,3.2a2.208,2.208,0,0,1,0,1.6.752.752,0,0,1-.7.5H.5A10.9,10.9,0,0,1-2.1,6.4Z" fill="#272526"/></g><g transform="translate(88 43.95)"><path d="M-2.05-2.5c.2,0,.1,1.7,1.4,3.1S2.45,2,2.45,2.2s-.4.3-1.2.2a4.2,4.2,0,0,1-2.6-1.2,3.631,3.631,0,0,1-1.1-2.6C-2.45-2.1-2.15-2.5-2.05-2.5Z" fill="#272526"/></g><g transform="translate(83.65 21.95)"><path d="M3.6.6C3.4,1,1.9.6,0,.7s-3.4.4-3.6,0c-.1-.2.2-.6.9-.9a5.939,5.939,0,0,1,5.5,0C3.4.1,3.7.5,3.6.6Z" fill="#272526"/></g><g transform="translate(98.95 24.6)"><path d="M2.6.85c-.3.3-1.4-.2-2.6-.3s-2.4,0-2.6-.4c-.1-.2.1-.5.6-.8a4.306,4.306,0,0,1,2.2-.4,4.025,4.025,0,0,1,2,.9C2.6.35,2.7.65,2.6.85Z" fill="#272526"/></g><g transform="translate(65.15 36.45)"><path d="M3.9-4.2C3.7-4.3-2.9-7-3.4,0S3.2,6.1,3.2,5.9,3.9-4.2,3.9-4.2Z" fill="#ffbd9d"/></g><g transform="translate(65 37)"><path d="M1.45,2.45a1.238,1.238,0,0,1-.3.2.972.972,0,0,1-.9-.1A3.075,3.075,0,0,1-.95-.25a3.371,3.371,0,0,1,.5-1.7,1.5,1.5,0,0,1,1-.9.67.67,0,0,1,.7.4c.1.2,0,.3.1.4s.2-.1.1-.4a.52.52,0,0,0-.2-.4.844.844,0,0,0-.7-.2,2.068,2.068,0,0,0-1.4,1,6.033,6.033,0,0,0-.6,1.9c-.1,1.4.6,2.8,1.6,3.1a1.376,1.376,0,0,0,1.1-.1C1.45,2.65,1.45,2.55,1.45,2.45Z" fill="#eb996d"/></g><g transform="translate(87.251 19.1)"><path d="M19.5,4.25A14.644,14.644,0,0,1,6.8-.05C4.6-2.45,3-5.65,0-6.95a8.347,8.347,0,0,0-6.4.2,16.941,16.941,0,0,0-5.3,3.9c1.4,5.4-.5,11-2.4,16.2a3.065,3.065,0,0,1-1,1.5c-.9.6-2.1-.1-2.7-.9a8.889,8.889,0,0,1-1.4-4.7,28.983,28.983,0,0,1,1.3-11.3,20.046,20.046,0,0,1,6.4-9.3A18.617,18.617,0,0,1,2-14.85a22.361,22.361,0,0,1,12.6,6.1,13.631,13.631,0,0,1,3.8,5.4" fill="#272526"/></g></g><g transform="translate(82 196)"><g transform="translate(302.3 40.05)"><path d="M6.95-39.8l-19,79.6h5.3l18.8-79.6Z" fill="#272526"/></g><g transform="translate(305 75.1)"><path d="M-3.05-22.45c-.3,1.5,8.6,44.9,8.6,44.9H1.25l-6.8-34.4Z" fill="#272526"/></g><g transform="translate(320.75 202.25)"><path d="M-44.6-47.3H44.6V47.3H-44.6Z" fill="#f59e0b"/></g><g transform="translate(367.55 170.95)"><path d="M-2.2-2.2H2.2V2.2H-2.2Z" fill="#272526"/></g><g transform="translate(367.55 184.95)"><path d="M-2.2-2.2H2.2V2.2H-2.2Z" fill="#272526"/></g><g transform="translate(367.55 198.85)"><path d="M-2.2-2.2H2.2V2.2H-2.2Z" fill="#272526"/></g><g transform="translate(367.55 212.749)"><path d="M-2.2-2.2H2.2V2.2H-2.2Z" fill="#272526"/></g><g transform="translate(376.649 204.9)"><path d="M-6.7-7.05c.4-.1.9-.2,1.3-.3a23.278,23.278,0,0,1,3.8-.4,11.139,11.139,0,0,1,5.4,1.4,6.364,6.364,0,0,1,3,6,8.029,8.029,0,0,1-1.1,3.4,7.553,7.553,0,0,1-2.3,2.4,11.923,11.923,0,0,1-5.2,2.1,15.966,15.966,0,0,1-3.8.1A6.762,6.762,0,0,1-7,7.45h1.4a23.2,23.2,0,0,0,3.7-.3,11.655,11.655,0,0,0,5-2.1A7.7,7.7,0,0,0,6.3-.45a5.865,5.865,0,0,0-2.8-5.6,9.545,9.545,0,0,0-5.2-1.5,22.954,22.954,0,0,0-3.7.2A1.593,1.593,0,0,1-6.7-7.05Z" fill="#272526"/></g><g transform="translate(374.45 190.749)"><path d="M-5.6-6.7a.754.754,0,0,1,.4-.2,6.875,6.875,0,0,1,1.3-.5,11.03,11.03,0,0,1,5.1-.3,4.418,4.418,0,0,1,1.6.6A2.268,2.268,0,0,1,3.9-5.5,4.746,4.746,0,0,1,1-.1,2.874,2.874,0,0,1-1.4-.2,2.631,2.631,0,0,1-2.8-2.3,2.582,2.582,0,0,1-1.4-4.5a3.663,3.663,0,0,1,2.5-.3A4.6,4.6,0,0,1,3.3-3.7,6.178,6.178,0,0,1,5.5.3a6.243,6.243,0,0,1-1.1,4A7.4,7.4,0,0,1,1.7,6.6a12.792,12.792,0,0,1-5,1.3c-.6,0-1.1.1-1.4.1h-.5s.7-.1,1.9-.2A15.653,15.653,0,0,0,1.5,6.4,9.207,9.207,0,0,0,4.1,4.2,5.224,5.224,0,0,0,5.1.6,5.4,5.4,0,0,0,3-3,5.4,5.4,0,0,0,1-4a3.375,3.375,0,0,0-2.2.2A1.849,1.849,0,0,0-2.3-2.1,2.085,2.085,0,0,0-1.2-.5a2.321,2.321,0,0,0,2,.1A3.765,3.765,0,0,0,2.4-1.6a4,4,0,0,0,1-3.6,2.905,2.905,0,0,0-2.5-2,10.533,10.533,0,0,0-5,.1C-5-7-5.6-6.6-5.6-6.7Z" fill="#272526"/></g><g transform="translate(373.25 177.65)"><path d="M-4.4-7.1a3.516,3.516,0,0,1,1-.2A6.246,6.246,0,0,1-.7-7,7.4,7.4,0,0,1,2.6-4.8,7.058,7.058,0,0,1,4.3-.2,7.252,7.252,0,0,1,2.9,4.5,6.991,6.991,0,0,1-.3,6.9a5.773,5.773,0,0,1-2.6.5,3.37,3.37,0,0,1-1-.1A8.523,8.523,0,0,0-.4,6.5a7.806,7.806,0,0,0,3-2.4,7.358,7.358,0,0,0-.3-8.7A7.656,7.656,0,0,0-.8-6.8,14.571,14.571,0,0,0-4.4-7.1Z" fill="#272526"/></g><g transform="translate(343.5 137.849)"><path d="M-40.851-33.1a14.056,14.056,0,0,1,.8,1.8,52.248,52.248,0,0,1,1.2,5.4c.4,2.4.7,5.3,1,8.6s.6,7.2,1.1,11.5c.1,1,.3,2.1.5,3.2a11.9,11.9,0,0,0,1,3.2,11.269,11.269,0,0,0,2.2,2.7A17.287,17.287,0,0,0-22.951,8a14.49,14.49,0,0,0,7.9-1.4A9.674,9.674,0,0,0-9.951.2a7.49,7.49,0,0,0-.3-4.2,7.7,7.7,0,0,0-2.8-3.4,9.114,9.114,0,0,0-4.2-1.4,7.377,7.377,0,0,0-4.3,1.2,4.957,4.957,0,0,0-1.5,1.7,4.078,4.078,0,0,0-.3,2.2,5.469,5.469,0,0,0,2.8,3.5,14.285,14.285,0,0,0,4.6,1.3,38.3,38.3,0,0,0,4.7.3c3.1,0,6.2-.2,9.3-.5,6.1-.7,12-1.7,17.6-1.7s11.1.7,15.7,3a17.851,17.851,0,0,1,5.8,4.4,13.626,13.626,0,0,1,3,6,15.692,15.692,0,0,1-1.8,11.2,19.754,19.754,0,0,1-5.9,6.3,22.586,22.586,0,0,1-4.9,2.5,11.959,11.959,0,0,1-1.8.5l.5-.2c.3-.1.8-.3,1.3-.5a22.24,22.24,0,0,0,4.8-2.6,18.39,18.39,0,0,0,5.8-6.3,16.235,16.235,0,0,0,1.6-11,12.42,12.42,0,0,0-3-5.8,17.94,17.94,0,0,0-5.7-4.2c-4.5-2.2-9.9-3-15.5-2.9S4.05.6-2.049,1.3a58.536,58.536,0,0,1-9.4.5,38.645,38.645,0,0,1-4.8-.3,12.711,12.711,0,0,1-4.7-1.3,5.952,5.952,0,0,1-3-3.9,4.35,4.35,0,0,1,.3-2.5,4.965,4.965,0,0,1,1.6-1.9,7.573,7.573,0,0,1,4.6-1.4,8.922,8.922,0,0,1,4.5,1.5,8.81,8.81,0,0,1,3,3.6,6.975,6.975,0,0,1,.3,4.5,10.113,10.113,0,0,1-5.4,6.7,15.176,15.176,0,0,1-8.1,1.4,18.092,18.092,0,0,1-7.4-2.5,17.013,17.013,0,0,1-3-2.3,12.3,12.3,0,0,1-2.3-2.8,13.826,13.826,0,0,1-1-3.3c-.2-1.1-.4-2.2-.5-3.2-.5-4.2-.8-8.1-1.1-11.5s-.6-6.3-.9-8.6a34.411,34.411,0,0,0-1.1-5.4,7.676,7.676,0,0,0-.5-1.4C-40.75-32.8-40.851-33-40.851-33.1Z" fill="#272526"/></g><g transform="translate(320 202.15)"><path d="M40.349,43.5V37.2c0-4.1,0-10.1-.1-17.7,0-15.2-.1-36.9-.1-62.9l.2.2h-80.6l.3-.3V43.4l-.2-.2,58.4.1,16.4.1h4.3l-4.4.1-16.3.1-58.6.1h-.2V-43.7h81.1v.2c0,26-.1,47.8-.1,63,0,7.6,0,13.6-.1,17.7v6.3Z" fill="#272526"/></g><g transform="translate(337.05 169.3)"><path d="M.5.051a.429.429,0,0,1-.4.4.509.509,0,0,1-.5-.4c-.1-.3.1-.4.4-.5H.1A.664.664,0,0,1,.5.051Z" fill="#272526"/></g><g transform="translate(339.35 169.3)"><path d="M.5.051a.429.429,0,0,1-.4.4.508.508,0,0,1-.5-.4c-.1-.3.1-.4.4-.5H.1A.665.665,0,0,1,.5.051Z" fill="#272526"/></g><g transform="translate(341.65 169.3)"><path d="M.5.051a.428.428,0,0,1-.4.4.508.508,0,0,1-.5-.4c-.1-.3.1-.4.4-.5H.1A.663.663,0,0,1,.5.051Z" fill="#272526"/></g><g transform="translate(344.05 169.35)"><path d="M.4,0A.43.43,0,0,1,0,.4.429.429,0,0,1-.4,0,.43.43,0,0,1,0-.4.431.431,0,0,1,.4,0Z" fill="#272526"/></g><g transform="translate(346.25 169.3)"><path d="M.4.051a.428.428,0,0,1-.4.4c-.2,0-.4-.3-.4-.5s.2-.3.4-.4A.51.51,0,0,1,.4.051Z" fill="#272526"/></g><g transform="translate(348.55 169.3)"><path d="M.4.051a.43.43,0,0,1-.4.4c-.2,0-.4-.3-.4-.5s.2-.3.4-.4A.666.666,0,0,1,.4.051Z" fill="#272526"/></g><g transform="translate(350.85 169.3)"><path d="M.4.051a.429.429,0,0,1-.4.4c-.2,0-.4-.3-.4-.5s.2-.3.4-.4A.664.664,0,0,1,.4.051Z" fill="#272526"/></g><g transform="translate(349.75 170.95)"><path d="M0-.4A.4.4,0,0,1,.4,0,.4.4,0,0,1,0,.4.4.4,0,0,1-.4,0,.4.4,0,0,1,0-.4Z" fill="#272526"/></g><g transform="translate(347.45 170.95)"><path d="M0-.4A.4.4,0,0,1,.4,0,.4.4,0,0,1,0,.4.4.4,0,0,1-.4,0,.4.4,0,0,1,0-.4Z" fill="#272526"/></g><g transform="translate(345.15 170.9)"><path d="M.4.05a.43.43,0,0,1-.4.4A.43.43,0,0,1-.4.05a.429.429,0,0,1,.4-.4C.2-.45.4-.25.4.05Z" fill="#272526"/></g><g transform="translate(342.75 170.95)"><path d="M0-.4A.4.4,0,0,1,.4,0,.4.4,0,0,1,0,.4.4.4,0,0,1-.4,0,.4.4,0,0,1,0-.4Z" fill="#272526"/></g><g transform="translate(340.45 170.95)"><path d="M0-.4A.4.4,0,0,1,.4,0,.4.4,0,0,1,0,.4.4.4,0,0,1-.4,0,.4.4,0,0,1,0-.4Z" fill="#272526"/></g><g transform="translate(338.15 170.9)"><path d="M.4.05a.43.43,0,0,1-.4.4A.43.43,0,0,1-.4.05a.429.429,0,0,1,.4-.4C.2-.45.4-.25.4.05Z" fill="#272526"/></g><g transform="translate(337.15 172.65)"><path d="M.4,0A.43.43,0,0,1,0,.4.43.43,0,0,1-.4,0,.43.43,0,0,1,0-.4.43.43,0,0,1,.4,0Z" fill="#272526"/></g><g transform="translate(339.45 172.65)"><path d="M.4,0A.43.43,0,0,1,0,.4.43.43,0,0,1-.4,0,.43.43,0,0,1,0-.4.43.43,0,0,1,.4,0Z" fill="#272526"/></g><g transform="translate(341.75 172.65)"><path d="M.4,0A.429.429,0,0,1,0,.4.43.43,0,0,1-.4,0,.43.43,0,0,1,0-.4.429.429,0,0,1,.4,0Z" fill="#272526"/></g><g transform="translate(344 172.55)"><path d="M.45.1c0,.2-.3.4-.5.4s-.3-.2-.4-.4a.509.509,0,0,1,.4-.5c.3-.1.4.1.5.4Z" fill="#272526"/></g><g transform="translate(346.25 172.65)"><path d="M.4,0A.429.429,0,0,1,0,.4.43.43,0,0,1-.4,0,.43.43,0,0,1,0-.4.366.366,0,0,1,.4,0Z" fill="#272526"/></g><g transform="translate(348.55 172.65)"><path d="M.4,0A.431.431,0,0,1,0,.4.43.43,0,0,1-.4,0,.43.43,0,0,1,0-.4.431.431,0,0,1,.4,0Z" fill="#272526"/></g><g transform="translate(350.85 172.65)"><path d="M.4,0A.43.43,0,0,1,0,.4.429.429,0,0,1-.4,0,.429.429,0,0,1,0-.4.43.43,0,0,1,.4,0Z" fill="#272526"/></g><g transform="translate(349.85 174.15)"><path d="M.4,0A.43.43,0,0,1,0,.4.429.429,0,0,1-.4,0,.429.429,0,0,1,0-.4.43.43,0,0,1,.4,0Z" fill="#272526"/></g><g transform="translate(347.45 174.15)"><path d="M.4,0A.43.43,0,0,1,0,.4.43.43,0,0,1-.4,0,.43.43,0,0,1,0-.4.43.43,0,0,1,.4,0Z" fill="#272526"/></g><g transform="translate(345.15 174.15)"><path d="M.4,0A.43.43,0,0,1,0,.4.43.43,0,0,1-.4,0,.43.43,0,0,1,0-.4.43.43,0,0,1,.4,0Z" fill="#272526"/></g><g transform="translate(342.85 174.15)"><path d="M.4,0A.43.43,0,0,1,0,.4.429.429,0,0,1-.4,0,.429.429,0,0,1,0-.4.43.43,0,0,1,.4,0Z" fill="#272526"/></g><g transform="translate(340.4 174.25)"><path d="M.449-.1a.509.509,0,0,1-.4.5c-.3.1-.4-.1-.5-.4V-.1c0-.2.3-.4.5-.4C.35-.4.449-.3.449-.1Z" fill="#272526"/></g><g transform="translate(338.15 174.15)"><path d="M.4,0A.43.43,0,0,1,0,.4.43.43,0,0,1-.4,0,.43.43,0,0,1,0-.4.43.43,0,0,1,.4,0Z" fill="#272526"/></g><g transform="translate(337.15 175.95)"><path d="M.4,0A.43.43,0,0,1,0,.4.43.43,0,0,1-.4,0,.429.429,0,0,1,0-.4.366.366,0,0,1,.4,0Z" fill="#272526"/></g><g transform="translate(339.45 175.95)"><path d="M.4,0A.43.43,0,0,1,0,.4.43.43,0,0,1-.4,0,.429.429,0,0,1,0-.4.365.365,0,0,1,.4,0Z" fill="#272526"/></g><g transform="translate(341.75 175.95)"><path d="M.4,0A.429.429,0,0,1,0,.4.43.43,0,0,1-.4,0,.429.429,0,0,1,0-.4.365.365,0,0,1,.4,0Z" fill="#272526"/></g><g transform="translate(344 176.051)"><path d="M.45-.1a.511.511,0,0,1-.4.5c-.3.1-.4-.1-.5-.4V-.1c0-.2.3-.4.5-.4S.349-.3.45-.1Z" fill="#272526"/></g><g transform="translate(346.25 175.9)"><path d="M.4.05a.429.429,0,0,1-.4.4A.43.43,0,0,1-.4.05a.429.429,0,0,1,.4-.4C.3-.45.4-.25.4.05Z" fill="#272526"/></g><g transform="translate(348.55 175.9)"><path d="M.4.05a.431.431,0,0,1-.4.4A.43.43,0,0,1-.4.05a.429.429,0,0,1,.4-.4C.2-.45.4-.25.4.05Z" fill="#272526"/></g><g transform="translate(350.85 175.9)"><path d="M.4.05a.43.43,0,0,1-.4.4A.429.429,0,0,1-.4.05a.428.428,0,0,1,.4-.4C.2-.45.4-.25.4.05Z" fill="#272526"/></g><g transform="translate(349.75 177.45)"><path d="M0-.4A.4.4,0,0,1,.4,0,.4.4,0,0,1,0,.4.4.4,0,0,1-.4,0,.4.4,0,0,1,0-.4Z" fill="#272526"/></g><g transform="translate(347.45 177.45)"><path d="M0-.4A.4.4,0,0,1,.4,0,.4.4,0,0,1,0,.4.4.4,0,0,1-.4,0,.4.4,0,0,1,0-.4Z" fill="#272526"/></g><g transform="translate(345.05 177.4)"><path d="M.5.05a.43.43,0,0,1-.4.4A.51.51,0,0,1-.4.05c-.1-.3.1-.4.4-.5H.1A.666.666,0,0,1,.5.05Z" fill="#272526"/></g><g transform="translate(342.75 177.45)"><path d="M0-.4A.4.4,0,0,1,.4,0,.4.4,0,0,1,0,.4.4.4,0,0,1-.4,0,.4.4,0,0,1,0-.4Z" fill="#272526"/></g><g transform="translate(340.45 177.45)"><path d="M0-.4A.4.4,0,0,1,.4,0,.4.4,0,0,1,0,.4.4.4,0,0,1-.4,0,.4.4,0,0,1,0-.4Z" fill="#272526"/></g><g transform="translate(338.15 177.4)"><path d="M.4.05a.43.43,0,0,1-.4.4c-.2,0-.4-.3-.4-.5s.2-.3.4-.4A.666.666,0,0,1,.4.05Z" fill="#272526"/></g><g transform="translate(294.65 109.05)"><path d="M11.4-33.1a4.164,4.164,0,0,1,1.6.3,8.679,8.679,0,0,1,3.9,2.6,18.274,18.274,0,0,1,3.5,6.6,64.789,64.789,0,0,1,2.2,9.7,123.545,123.545,0,0,1,.6,25.8A14.807,14.807,0,0,1,21,19a9.02,9.02,0,0,1-2.8,2.7,5.965,5.965,0,0,1-3.9.9,5.792,5.792,0,0,1-3.7-1.7,4.185,4.185,0,0,1-1.1-1.8,3.747,3.747,0,0,1,0-2.1,4.575,4.575,0,0,1,2.8-3.1,2.8,2.8,0,0,1,2.2,0,4.628,4.628,0,0,1,1.8,1.3,5.528,5.528,0,0,1,1,4.1,9.325,9.325,0,0,1-1.5,3.9A15.206,15.206,0,0,1-4.7,29.1a18.378,18.378,0,0,1-5.4-4.6,22.306,22.306,0,0,1-3.3-5.8A39.713,39.713,0,0,1-15.6,6.9c-.2-3.7,0-7-.4-9.9a27.418,27.418,0,0,0-.9-3.9,10.546,10.546,0,0,0-1.7-2.9,9.363,9.363,0,0,0-3.7-2.8,9.266,9.266,0,0,0-1.6-.4,4.145,4.145,0,0,1,1.6.3A8.576,8.576,0,0,1-18.5-10a14.862,14.862,0,0,1,1.8,3,18,18,0,0,1,1,4c.4,2.9.2,6.2.4,9.9a39.07,39.07,0,0,0,2.2,11.7,22.659,22.659,0,0,0,3.2,5.7,16.515,16.515,0,0,0,5.3,4.5A14.709,14.709,0,0,0,15.2,23a10.267,10.267,0,0,0,1.4-3.8,5.18,5.18,0,0,0-.9-3.8,4.44,4.44,0,0,0-1.5-1.2,3.1,3.1,0,0,0-1.9,0A4.368,4.368,0,0,0,9.8,17a3.733,3.733,0,0,0,1,3.5,5.43,5.43,0,0,0,3.4,1.6,5.721,5.721,0,0,0,3.6-.9,8.376,8.376,0,0,0,2.7-2.6,15.557,15.557,0,0,0,2.2-6.9,128.894,128.894,0,0,0-.5-25.6,74.28,74.28,0,0,0-2.1-9.6A16.242,16.242,0,0,0,16.7-30a8.372,8.372,0,0,0-3.8-2.6A6.655,6.655,0,0,0,11.4-33.1Z" fill="#dfdfdf"/></g><g transform="translate(281.549 93.6)"><path d="M-16.6-3.15H16.6v6.3H-16.6Z" fill="#dfdfdf"/></g><g transform="translate(36.7 202.5)"><path d="M-21.65-46.65h43.3v93.3h-43.3Z" fill="#272526"/></g><g transform="translate(36.55 198.95)"><path d="M18.1,40.3V34.2c0-3.9,0-9.5-.1-16.7,0-14.2-.1-34.2-.1-57.5l.2.2H-18.1l.3-.3c0,31.2,0,59.5-.1,80.2l-.2-.2L8.4,40h9.1c.5.3.7.3.6.3l-.5-.1H8.5l-26.6.1h-.2v-.2c0-20.8,0-49.1-.1-80.2v-.2H18.4v.2c0,23.4-.1,43.4-.1,57.7,0,7.1,0,12.7-.1,16.6v5.5A3.516,3.516,0,0,1,18.1,40.3Z" fill="#455a63"/></g><g transform="translate(36.65 163.75)"><path d="M15.8,2.1v-1c0-.6,0-1.6-.1-2.7l.1.1c-5.6.1-17.6.1-31.5.1l.3-.3V2l-.2-.3c8.8,0,16.7.1,22.3.1l6.7.1h.1L6.9,2c-5.7.1-13.6.1-22.5.1h-.3V-1.8l.3-.3c13.9,0,25.9.1,31.5.1v.1A21.847,21.847,0,0,1,15.8.9Z" fill="#455a63"/></g><g transform="translate(22.6 168.55)"><path d="M1.45,0A2.516,2.516,0,0,1,.05.3c-.7,0-1.5-.1-1.5-.3s.7-.3,1.5-.3S1.45-.2,1.45,0Z" fill="#455a63"/></g><g transform="translate(36.65 173.35)"><path d="M15,0C15,.1,8.3.3,0,.3S-15,.2-15,0-8.3-.3,0-.3,15-.2,15,0Z" fill="#455a63"/></g><g transform="translate(37.05 179.15)"><path d="M14.7,0C14.7.1,8.1.3,0,.3S-14.7.2-14.7,0-8.1-.3,0-.3,14.7-.2,14.7,0Z" fill="#455a63"/></g><g transform="translate(36.65 192.75)"><path d="M0-2.4A2.4,2.4,0,0,1,2.4,0,2.4,2.4,0,0,1,0,2.4,2.4,2.4,0,0,1-2.4,0,2.4,2.4,0,0,1,0-2.4Z" fill="#1dbf73"/></g><g transform="translate(26.7 192.7)"><path d="M3.15-.05a11.233,11.233,0,0,1-3.2.3,8,8,0,0,1-3.1-.3,11.233,11.233,0,0,1,3.2-.3A10.884,10.884,0,0,1,3.15-.05Z" fill="#455a63"/></g><g transform="translate(46.25 192)"><path d="M3-.05a10.206,10.206,0,0,1-3,.3,7.687,7.687,0,0,1-3-.3,10.206,10.206,0,0,1,3-.3A15.263,15.263,0,0,1,3-.05Z" fill="#455a63"/></g><g transform="translate(20.55 154.3)"><path d="M-4,48.35c-.5-.1-1.1-.2-1.6-.3a14.042,14.042,0,0,1-4.3-2,19.112,19.112,0,0,1-5.2-5.4,32.482,32.482,0,0,1-3.8-9.2,39.831,39.831,0,0,1-1.2-11.9,24.029,24.029,0,0,1,4.6-12.9,22.24,22.24,0,0,1,5.4-5.2A16.153,16.153,0,0,1-6.6-.25a24.605,24.605,0,0,1,3.9-.9c2.6-.4,5.3-.3,8-.5a21.657,21.657,0,0,0,7.9-1.8,8.718,8.718,0,0,0,4.9-6,8.468,8.468,0,0,0-6.3-10.1,7.487,7.487,0,0,0-2.1-.2,6.291,6.291,0,0,0-3.3,1.2,3.749,3.749,0,0,0-1.4,3,4.906,4.906,0,0,0,4.5,4.3,7.316,7.316,0,0,0,5.7-2.6,13.958,13.958,0,0,0,2.8-5.4,50.535,50.535,0,0,0,1.2-5.6,90.776,90.776,0,0,0,.5-17.3c-.1-2-.2-3.6-.2-4.7a4.121,4.121,0,0,0-.1-1.2v-.4c0,.1.1.3.1.4,0,.3.1.7.1,1.2.1,1.1.2,2.7.3,4.7a92.024,92.024,0,0,1-.4,17.4,57.238,57.238,0,0,1-1.1,5.7,14.088,14.088,0,0,1-2.8,5.6,7.452,7.452,0,0,1-6.1,2.7,5.335,5.335,0,0,1-4.9-4.7,3.867,3.867,0,0,1,1.6-3.4,6.677,6.677,0,0,1,3.6-1.4,8.962,8.962,0,0,1,9.1,8.9,9.484,9.484,0,0,1-2,5.8,10.278,10.278,0,0,1-3.3,2.6,20.463,20.463,0,0,1-8.1,1.9c-2.7.2-5.4.1-8,.5a26.154,26.154,0,0,0-3.8.9,15.444,15.444,0,0,0-3.4,1.7,18.069,18.069,0,0,0-5.3,5,24.093,24.093,0,0,0-4.5,12.7,35.9,35.9,0,0,0,1.1,11.8,30.068,30.068,0,0,0,3.7,9.1,19.768,19.768,0,0,0,5,5.4,16.519,16.519,0,0,0,4.2,2.1,10.377,10.377,0,0,1,1.2.3C-4.3,48.25-4.1,48.25-4,48.35Z" fill="#272526"/></g><g transform="translate(53.05 46.4)"><path d="M-51.3-35.25H51.3v70.5H-51.3Z" fill="#272526"/></g><g transform="translate(52.15 85.35)"><path d="M-7-13.3H7V13.3H-7Z" fill="#272526"/></g></g><g transform="translate(18 328.5)"><g transform="translate(47.5 54.05)"><path d="M-7.35-5.4A18.775,18.775,0,0,1,4.35-6.8c2.1.4,4.3,1,5.8,2.6S14.038.388,12.438,1.787c-1.1.7-4.588.812-5.888.712-3.1,0-6.5-.6-9,1.3-1.4,1.1-2.4,2.8-4,3.4a4.024,4.024,0,0,1-4.4-2,6.654,6.654,0,0,1-.5-5A7.783,7.783,0,0,1-7.35-5.4Z" fill="#f59e0b"/></g><g transform="translate(38.7 18.101)"><path d="M-6.65,14.749c2.2,3.1,6.4,2.1,8.4.2s2.8-4.6,3.5-7.3c1.7-6,3.5-12.3,2.2-18.4a9.385,9.385,0,0,0-2.4-5,5.435,5.435,0,0,0-5.1-1.7c-2.1.6-3.5,2.7-4.4,4.6a43.84,43.84,0,0,0-4.3,18.8C-8.75,9.05-8.45,12.249-6.65,14.749Z" fill="#f59e0b"/></g><g transform="translate(14.6 24.95)"><path d="M11.45,12.4A11.451,11.451,0,0,0,13.25,2a20.044,20.044,0,0,0-6.2-9,31.406,31.406,0,0,0-11-6.5,12.205,12.205,0,0,0-5-.8,3.59,3.59,0,0,0-3.45,2c-1.2,2.2-.75,5.4.45,7.6A81.724,81.724,0,0,0-4.65,6.4c2.2,2.8,4.7,5.6,8,6.8s6.8,1.1,8.5-1.2" fill="#f59e0b"/></g><g transform="translate(40 65.55)"><path d="M-8.15,14.3a6.743,6.743,0,0,0,.2-1.4c.1-1,.2-2.3.4-3.9a56.224,56.224,0,0,1,.9-5.7,40,40,0,0,1,2.1-6.7,25.23,25.23,0,0,1,3.4-6A11.544,11.544,0,0,1,3.15-13a9.4,9.4,0,0,1,3.6-1.1,6.755,6.755,0,0,0,1.4-.2H6.75a10.207,10.207,0,0,0-3.8,1,12.187,12.187,0,0,0-4.5,3.6,23.63,23.63,0,0,0-3.5,6.2,40.728,40.728,0,0,0-2,6.8A55.794,55.794,0,0,0-7.85,9c-.1,1.6-.2,3-.2,3.9A6.136,6.136,0,0,0-8.15,14.3Z" fill="#272526"/></g><g transform="translate(35.6 45)"><path d="M-3.45,31.85v-2.5c0-1.6,0-4,.1-6.9.1-5.8.6-12.1,1.6-20.9.9-8.3,2.2-18,3.5-24.3.3-1.4.5-2.7.8-3.8s.5-2.1.7-2.9.3-1.4.4-1.8a1.268,1.268,0,0,0,.1-.6,1.421,1.421,0,0,0-.2.6c-.2.5-.3,1.1-.5,1.8s-.5,1.8-.8,2.9-.6,2.4-.9,3.8A210.815,210.815,0,0,0-2.25-.25a211.993,211.993,0,0,0-1.5,22.7c0,2.9,0,5.3.1,6.9,0,.8.1,1.4.1,1.9A1.266,1.266,0,0,0-3.45,31.85Z" fill="#272526"/></g><g transform="translate(21.85 39.55)"><path d="M10.3,21.8a6.7,6.7,0,0,0,0-2,45.2,45.2,0,0,0-.6-5.3A66.006,66.006,0,0,0,8,6.8,62.708,62.708,0,0,0,4.8-2.4,48.069,48.069,0,0,0-4.7-17.2c-.7-.7-1.5-1.4-2.2-2.1a7,7,0,0,0-1-.8l-.9-.6a15.412,15.412,0,0,0-1.6-1.1A61.677,61.677,0,0,1-5-17,52.874,52.874,0,0,1,4.3-2.2,70.353,70.353,0,0,1,7.6,6.9c.8,2.9,1.4,5.5,1.8,7.7s.6,4,.8,5.3A6.225,6.225,0,0,0,10.3,21.8Z" fill="#272526"/></g><g transform="translate(32.4 99.4)"><path d="M-15.25-10.65l1.5,21.3h27.5l1.5-21.3Z" fill="#272526"/></g><g transform="translate(32.7 84.55)"><path d="M-18.25-4.2h36.5V4.2h-36.5Z" fill="#272526"/></g><g transform="translate(32.4 110.4)"><path d="M-17.95-1.15v2.3h35.9v-2.3Z" fill="#455a63"/></g><g transform="translate(32.6 113.6)"><path d="M-14.75,2.05l-1.7-4.1h32.9l-2,4.1Z" fill="#455a63"/></g><g transform="translate(32.35 95.7)"><path d="M14.8.051c0,.1-.1.1-.1.2l-.4.5-1.6,2-.1.1-.1-.1L8.6-2.65h.2l-3.9,5.5-.1.2-.1-.2c-1.4-1.7-3-3.5-4.6-5.5H.4c-.1.1-.2.2-.2.3l-4.1,5.1-.1.2-.1-.2L-8-2.749h.2l-4.8,5.5-.1.1-.1-.1c-.6-1-1.1-1.9-1.5-2.5l-.4-.7-.1-.2s.1.1.2.2l.4.6,1.6,2.5h-.2l4.7-5.5.1-.1.1.1,3.9,5.4h-.3l4.1-5.1.2-.3.1-.2.1.2,4.6,5.5H4.5l3.9-5.4.1-.2.1.2,3.8,5.5h.1l1.7-2,.4-.5C14.7.051,14.8-.05,14.8.051Z" fill="#dfdfdf"/></g><g transform="translate(32.75 88.55)"><path d="M15.3,0C15.3.1,8.4.2,0,.2S-15.3.1-15.3,0-8.4-.2,0-.2,15.3,0,15.3,0Z" fill="#455a63"/></g><g transform="translate(32.75 111.85)"><path d="M16.7,0C16.7.1,9.2.2,0,.2S-16.7.1-16.7,0-9.2-.2,0-.2,16.7-.1,16.7,0Z" fill="#272526"/></g></g><g transform="translate(94 288)"><g transform="translate(159.15 79.35)"><path d="M-158.9-75.6V-66H-106V76.4h4.9V-66L120-64.9V76.4h4.7V-65.2l34.2.3V-76.4Z" fill="#272526"/></g><g transform="translate(43.5 19.85)"><path d="M-9.45-8.4l20.9,15L9.65,8.4-11.45-7.5Z" fill="#272526"/></g><g transform="translate(292.45 22.35)"><path d="M11.1-9.5-13.1,7.8l1.8,1.7L13.1-8.6Z" fill="#272526"/></g><g transform="translate(104.5 2.25)"><path d="M-27.35-2h54.7V2h-54.7Z" fill="#272526"/></g></g></g></svg>