<?xml version="1.0" encoding="UTF-8"?> <svg xmlns="http://www.w3.org/2000/svg" width="155" height="40" viewBox="0 0 155 40" fill="none"><path d="M61.04 10.8C61.2653 10.8 61.4473 10.8693 61.586 11.008C61.742 11.1467 61.82 11.3287 61.82 11.554C61.82 11.7793 61.742 11.9613 61.586 12.1C61.4473 12.2213 61.2653 12.282 61.04 12.282H55.658V28.22C55.658 28.4453 55.58 28.636 55.424 28.792C55.268 28.9307 55.0773 29 54.852 29C54.6093 29 54.41 28.9307 54.254 28.792C54.1153 28.636 54.046 28.4453 54.046 28.22V12.282H48.664C48.4387 12.282 48.248 12.2127 48.092 12.074C47.9533 11.9353 47.884 11.7533 47.884 11.528C47.884 11.32 47.9533 11.1467 48.092 11.008C48.248 10.8693 48.4387 10.8 48.664 10.8H61.04ZM72.9456 15.714C73.1709 15.714 73.3529 15.792 73.4916 15.948C73.6476 16.104 73.7256 16.2947 73.7256 16.52V28.22C73.7256 28.4453 73.6476 28.636 73.4916 28.792C73.3529 28.9307 73.1709 29 72.9456 29C72.7202 29 72.5296 28.9307 72.3736 28.792C72.2349 28.636 72.1656 28.4453 72.1656 28.22V26.478C71.7322 27.258 71.0822 27.9167 70.2156 28.454C69.3489 28.9913 68.4042 29.26 67.3816 29.26C66.2202 29.26 65.1716 28.9567 64.2356 28.35C63.3169 27.7433 62.5889 26.9113 62.0516 25.854C61.5316 24.7967 61.2716 23.6093 61.2716 22.292C61.2716 20.9747 61.5402 19.796 62.0776 18.756C62.6149 17.6987 63.3429 16.8753 64.2616 16.286C65.1976 15.6967 66.2289 15.402 67.3556 15.402C68.3956 15.402 69.3489 15.6533 70.2156 16.156C71.0822 16.6587 71.7322 17.3173 72.1656 18.132V16.52C72.1656 16.2947 72.2349 16.104 72.3736 15.948C72.5296 15.792 72.7202 15.714 72.9456 15.714ZM67.5376 27.804C68.4389 27.804 69.2449 27.57 69.9556 27.102C70.6836 26.6167 71.2469 25.958 71.6456 25.126C72.0616 24.2767 72.2696 23.332 72.2696 22.292C72.2696 21.2867 72.0616 20.368 71.6456 19.536C71.2469 18.704 70.6836 18.054 69.9556 17.586C69.2449 17.1007 68.4389 16.858 67.5376 16.858C66.6362 16.858 65.8216 17.092 65.0936 17.56C64.3829 18.028 63.8196 18.678 63.4036 19.51C63.0049 20.3247 62.8056 21.252 62.8056 22.292C62.8056 23.332 63.0049 24.2767 63.4036 25.126C63.8022 25.958 64.3569 26.6167 65.0676 27.102C65.7956 27.57 66.6189 27.804 67.5376 27.804ZM77.0422 26.894C76.9035 26.6687 76.8342 26.478 76.8342 26.322C76.8342 26.0967 76.9469 25.9233 77.1722 25.802C77.2762 25.698 77.4149 25.646 77.5882 25.646C77.7962 25.646 77.9869 25.7327 78.1602 25.906C79.1829 27.258 80.5435 27.934 82.2422 27.934C83.0742 27.934 83.7935 27.7433 84.4002 27.362C85.0242 26.9633 85.3362 26.3913 85.3362 25.646C85.3362 24.918 85.0502 24.372 84.4782 24.008C83.9062 23.644 83.1089 23.332 82.0862 23.072C80.6475 22.708 79.5209 22.24 78.7062 21.668C77.8915 21.0787 77.4842 20.2207 77.4842 19.094C77.4842 18.3833 77.6835 17.7507 78.0822 17.196C78.4809 16.624 79.0182 16.182 79.6942 15.87C80.3875 15.558 81.1675 15.402 82.0342 15.402C82.7795 15.402 83.5249 15.5493 84.2702 15.844C85.0329 16.1213 85.6829 16.572 86.2202 17.196C86.3762 17.3173 86.4542 17.4907 86.4542 17.716C86.4542 17.924 86.3675 18.106 86.1942 18.262C86.0729 18.366 85.9169 18.418 85.7262 18.418C85.5529 18.418 85.3969 18.3487 85.2582 18.21C84.8422 17.742 84.3482 17.3867 83.7762 17.144C83.2042 16.9013 82.5889 16.78 81.9302 16.78C81.1155 16.78 80.4135 16.9707 79.8242 17.352C79.2522 17.7333 78.9662 18.3053 78.9662 19.068C79.0009 19.7613 79.3129 20.29 79.9022 20.654C80.5089 21.018 81.3929 21.3473 82.5542 21.642C83.4555 21.8673 84.2009 22.1187 84.7902 22.396C85.3795 22.6733 85.8562 23.0633 86.2202 23.566C86.6015 24.0687 86.7922 24.736 86.7922 25.568C86.7922 26.6947 86.3415 27.596 85.4402 28.272C84.5389 28.9307 83.4209 29.26 82.0862 29.26C79.9715 29.26 78.2902 28.4713 77.0422 26.894ZM100.514 27.622C100.67 27.7953 100.748 27.9947 100.748 28.22C100.748 28.4453 100.652 28.636 100.462 28.792C100.288 28.9307 100.124 29 99.9677 29C99.7424 29 99.5517 28.9047 99.3957 28.714L93.6497 22.63L91.6997 24.294V28.22C91.6997 28.4453 91.6217 28.636 91.4657 28.792C91.327 28.9307 91.145 29 90.9197 29C90.6944 29 90.5037 28.9307 90.3477 28.792C90.209 28.636 90.1397 28.4453 90.1397 28.22V10.54C90.1397 10.3147 90.209 10.1327 90.3477 9.994C90.5037 9.838 90.6944 9.76 90.9197 9.76C91.145 9.76 91.327 9.838 91.4657 9.994C91.6217 10.1327 91.6997 10.3147 91.6997 10.54V22.396L99.2137 15.922C99.3697 15.7487 99.5517 15.662 99.7597 15.662C99.9504 15.662 100.124 15.7487 100.28 15.922C100.436 16.078 100.514 16.2513 100.514 16.442C100.514 16.65 100.418 16.8493 100.228 17.04L94.8717 21.59L100.514 27.622ZM117.314 10.8C117.556 10.8 117.747 10.878 117.886 11.034C118.042 11.1727 118.12 11.3633 118.12 11.606V28.194C118.102 28.4367 118.016 28.636 117.86 28.792C117.704 28.9307 117.513 29 117.288 29C117.062 29 116.872 28.922 116.716 28.766C116.56 28.61 116.482 28.4193 116.482 28.194V20.446H105.926V28.194C105.908 28.4193 105.822 28.61 105.666 28.766C105.51 28.922 105.319 29 105.094 29C104.851 29 104.652 28.9307 104.496 28.792C104.357 28.636 104.288 28.4367 104.288 28.194V11.606C104.288 11.3633 104.366 11.1727 104.522 11.034C104.678 10.878 104.877 10.8 105.12 10.8C105.345 10.8 105.536 10.878 105.692 11.034C105.848 11.19 105.926 11.3807 105.926 11.606V18.938H116.482V11.606C116.482 11.3807 116.56 11.19 116.716 11.034C116.889 10.878 117.088 10.8 117.314 10.8ZM124.119 28.22C124.119 28.4453 124.041 28.636 123.885 28.792C123.746 28.9307 123.564 29 123.339 29C123.113 29 122.923 28.9307 122.767 28.792C122.628 28.636 122.559 28.4453 122.559 28.22V16.26C122.559 16.0347 122.628 15.8527 122.767 15.714C122.923 15.558 123.113 15.48 123.339 15.48C123.564 15.48 123.746 15.558 123.885 15.714C124.041 15.8527 124.119 16.0347 124.119 16.26V28.22ZM123.339 13.738C122.992 13.738 122.723 13.66 122.533 13.504C122.342 13.3307 122.247 13.088 122.247 12.776V12.516C122.247 12.204 122.342 11.97 122.533 11.814C122.741 11.6407 123.018 11.554 123.365 11.554C124.058 11.554 124.405 11.8747 124.405 12.516V12.776C124.405 13.088 124.309 13.3307 124.119 13.504C123.945 13.66 123.685 13.738 123.339 13.738ZM138.207 15.454C138.381 15.454 138.545 15.5147 138.701 15.636C138.857 15.7573 138.935 15.9133 138.935 16.104C138.935 16.26 138.901 16.4073 138.831 16.546L133.735 28.506C133.666 28.6447 133.562 28.766 133.423 28.87C133.302 28.9567 133.172 29 133.033 29C132.86 29.0173 132.704 28.9827 132.565 28.896C132.427 28.8093 132.323 28.6793 132.253 28.506L127.131 16.546C127.131 16.5113 127.114 16.4593 127.079 16.39C127.062 16.3207 127.053 16.2513 127.053 16.182C127.053 15.974 127.123 15.8007 127.261 15.662C127.4 15.506 127.599 15.428 127.859 15.428C128.015 15.428 128.154 15.48 128.275 15.584C128.414 15.6707 128.518 15.792 128.587 15.948L133.007 26.478L137.453 15.948C137.523 15.792 137.618 15.6707 137.739 15.584C137.878 15.48 138.034 15.4367 138.207 15.454ZM153.038 21.59C153.038 21.798 152.96 21.98 152.804 22.136C152.648 22.2747 152.466 22.344 152.258 22.344H142.43C142.43 23.384 142.638 24.32 143.054 25.152C143.487 25.9667 144.094 26.6167 144.874 27.102C145.671 27.57 146.607 27.804 147.682 27.804C148.514 27.804 149.259 27.6307 149.918 27.284C150.577 26.9373 151.105 26.4953 151.504 25.958C151.695 25.802 151.877 25.724 152.05 25.724C152.223 25.724 152.379 25.7933 152.518 25.932C152.657 26.0707 152.726 26.2267 152.726 26.4C152.726 26.5907 152.639 26.7727 152.466 26.946C151.911 27.622 151.209 28.1767 150.36 28.61C149.528 29.0433 148.644 29.26 147.708 29.26C146.373 29.26 145.195 28.974 144.172 28.402C143.149 27.83 142.352 27.0327 141.78 26.01C141.208 24.97 140.922 23.774 140.922 22.422C140.922 21.0007 141.199 19.7613 141.754 18.704C142.326 17.6293 143.08 16.8147 144.016 16.26C144.952 15.688 145.949 15.402 147.006 15.402C148.046 15.402 149.017 15.6447 149.918 16.13C150.837 16.6153 151.582 17.326 152.154 18.262C152.726 19.198 153.021 20.3073 153.038 21.59ZM147.006 16.91C146.001 16.91 145.065 17.2567 144.198 17.95C143.349 18.6433 142.803 19.64 142.56 20.94H151.426V20.732C151.339 19.952 151.079 19.276 150.646 18.704C150.213 18.1147 149.667 17.6727 149.008 17.378C148.367 17.066 147.699 16.91 147.006 16.91Z" fill="#3F4552"></path><path d="M61.586 11.008L61.4092 11.1848L61.4144 11.19L61.4199 11.1949L61.586 11.008ZM61.586 12.1L61.7506 12.2881L61.7521 12.2869L61.586 12.1ZM55.658 12.282V12.032H55.408V12.282H55.658ZM55.424 28.792L55.5901 28.9789L55.5956 28.974L55.6008 28.9688L55.424 28.792ZM54.254 28.792L54.0671 28.9581L54.0769 28.9691L54.0879 28.9789L54.254 28.792ZM54.046 12.282H54.296V12.032H54.046V12.282ZM48.092 12.074L47.9152 12.2508L47.9204 12.256L47.9259 12.2609L48.092 12.074ZM48.092 11.008L47.9259 10.8211L47.9204 10.826L47.9152 10.8312L48.092 11.008ZM61.04 11.05C61.2098 11.05 61.3245 11.1001 61.4092 11.1848L61.7628 10.8312C61.5702 10.6386 61.3209 10.55 61.04 10.55V11.05ZM61.4199 11.1949C61.5179 11.282 61.57 11.3937 61.57 11.554H62.07C62.07 11.2637 61.9661 11.0113 61.7521 10.8211L61.4199 11.1949ZM61.57 11.554C61.57 11.7143 61.5179 11.826 61.4199 11.9131L61.7521 12.2869C61.9661 12.0967 62.07 11.8443 62.07 11.554H61.57ZM61.4214 11.9119C61.3379 11.9849 61.2189 12.032 61.04 12.032V12.532C61.3118 12.532 61.5568 12.4577 61.7506 12.2881L61.4214 11.9119ZM61.04 12.032H55.658V12.532H61.04V12.032ZM55.408 12.282V28.22H55.908V12.282H55.408ZM55.408 28.22C55.408 28.3806 55.3552 28.5072 55.2472 28.6152L55.6008 28.9688C55.8048 28.7648 55.908 28.51 55.908 28.22H55.408ZM55.2579 28.6051C55.1515 28.6998 55.0214 28.75 54.852 28.75V29.25C55.1333 29.25 55.3845 29.1616 55.5901 28.9789L55.2579 28.6051ZM54.852 28.75C54.66 28.75 54.523 28.6966 54.4201 28.6051L54.0879 28.9789C54.297 29.1647 54.5587 29.25 54.852 29.25V28.75ZM54.4409 28.6259C54.3462 28.5195 54.296 28.3894 54.296 28.22H53.796C53.796 28.5013 53.8844 28.7525 54.0671 28.9581L54.4409 28.6259ZM54.296 28.22V12.282H53.796V28.22H54.296ZM54.046 12.032H48.664V12.532H54.046V12.032ZM48.664 12.032C48.4946 12.032 48.3645 11.9818 48.2581 11.8871L47.9259 12.2609C48.1315 12.4436 48.3827 12.532 48.664 12.532V12.032ZM48.2688 11.8972C48.1841 11.8125 48.134 11.6977 48.134 11.528H47.634C47.634 11.8089 47.7226 12.0582 47.9152 12.2508L48.2688 11.8972ZM48.134 11.528C48.134 11.3818 48.1801 11.2735 48.2688 11.1848L47.9152 10.8312C47.7266 11.0198 47.634 11.2582 47.634 11.528H48.134ZM48.2581 11.1949C48.3645 11.1002 48.4946 11.05 48.664 11.05V10.55C48.3827 10.55 48.1315 10.6384 47.9259 10.8211L48.2581 11.1949ZM48.664 11.05H61.04V10.55H48.664V11.05ZM73.4916 15.948L73.3047 16.1141L73.3096 16.1196L73.3148 16.1248L73.4916 15.948ZM73.4916 28.792L73.6683 28.9688L73.4916 28.792ZM72.3736 28.792L72.1867 28.9581L72.1965 28.9691L72.2075 28.9789L72.3736 28.792ZM72.1656 26.478H72.4156V25.5132L71.947 26.3566L72.1656 26.478ZM70.2156 28.454L70.3473 28.6665L70.2156 28.454ZM64.2356 28.35L64.0978 28.5586L64.0996 28.5598L64.2356 28.35ZM62.0516 25.854L61.8272 25.9643L61.8287 25.9673L62.0516 25.854ZM62.0776 18.756L62.2997 18.8708L62.3004 18.8693L62.0776 18.756ZM64.2616 16.286L64.1284 16.0744L64.1266 16.0756L64.2616 16.286ZM70.2156 16.156L70.341 15.9397L70.2156 16.156ZM72.1656 18.132L71.9448 18.2494L72.4156 18.132H72.1656ZM72.3736 15.948L72.1968 15.7712L72.1916 15.7764L72.1867 15.7819L72.3736 15.948ZM69.9556 27.102L70.0931 27.3108L70.0942 27.31L69.9556 27.102ZM71.6456 25.126L71.421 25.016L71.4201 25.018L71.6456 25.126ZM71.6456 19.536L71.4201 19.644L71.422 19.6478L71.6456 19.536ZM69.9556 17.586L69.8145 17.7925L69.8204 17.7963L69.9556 17.586ZM65.0936 17.56L64.9584 17.3497L64.9561 17.3512L65.0936 17.56ZM63.4036 19.51L63.1799 19.3982L63.179 19.4001L63.4036 19.51ZM63.4036 25.126L63.1772 25.2322L63.1781 25.234L63.4036 25.126ZM65.0676 27.102L64.9265 27.3085L64.9324 27.3123L65.0676 27.102ZM72.9456 15.964C73.1059 15.964 73.2176 16.0161 73.3047 16.1141L73.6784 15.7819C73.4882 15.5679 73.2359 15.464 72.9456 15.464V15.964ZM73.3148 16.1248C73.4228 16.2328 73.4756 16.3594 73.4756 16.52H73.9756C73.9756 16.23 73.8723 15.9752 73.6683 15.7712L73.3148 16.1248ZM73.4756 16.52V28.22H73.9756V16.52H73.4756ZM73.4756 28.22C73.4756 28.3806 73.4228 28.5072 73.3148 28.6152L73.6683 28.9688C73.8723 28.7648 73.9756 28.51 73.9756 28.22H73.4756ZM73.3148 28.6152C73.2301 28.6999 73.1153 28.75 72.9456 28.75V29.25C73.2265 29.25 73.4757 29.1614 73.6683 28.9688L73.3148 28.6152ZM72.9456 28.75C72.7762 28.75 72.6461 28.6998 72.5397 28.6051L72.2075 28.9789C72.413 29.1616 72.6643 29.25 72.9456 29.25V28.75ZM72.5604 28.6259C72.4658 28.5195 72.4156 28.3894 72.4156 28.22H71.9156C71.9156 28.5013 72.004 28.7525 72.1867 28.9581L72.5604 28.6259ZM72.4156 28.22V26.478H71.9156V28.22H72.4156ZM71.947 26.3566C71.5372 27.0943 70.9195 27.7234 70.0838 28.2415L70.3473 28.6665C71.2449 28.1099 71.9273 27.4217 72.3841 26.5994L71.947 26.3566ZM70.0838 28.2415C69.2568 28.7543 68.3578 29.01 67.3816 29.01V29.51C68.4506 29.51 69.4409 29.2284 70.3473 28.6665L70.0838 28.2415ZM67.3816 29.01C66.2664 29.01 65.2653 28.7195 64.3715 28.1402L64.0996 28.5598C65.0778 29.1938 66.1741 29.51 67.3816 29.51V29.01ZM64.3733 28.1414C63.4936 27.5604 62.7937 26.7625 62.2744 25.7407L61.8287 25.9673C62.3841 27.0601 63.1402 27.9262 64.0978 28.5586L64.3733 28.1414ZM62.2759 25.7437C61.7747 24.7245 61.5216 23.5756 61.5216 22.292H61.0216C61.0216 23.643 61.2884 24.8688 61.8272 25.9643L62.2759 25.7437ZM61.5216 22.292C61.5216 21.0095 61.7829 19.871 62.2997 18.8708L61.8555 18.6412C61.2976 19.721 61.0216 20.9398 61.0216 22.292H61.5216ZM62.3004 18.8693C62.8194 17.848 63.5185 17.0597 64.3966 16.4964L64.1266 16.0756C63.1673 16.691 62.4104 17.5493 61.8547 18.6427L62.3004 18.8693ZM64.3948 16.4976C65.2901 15.9338 66.2751 15.652 67.3556 15.652V15.152C66.1827 15.152 65.105 15.4595 64.1284 16.0744L64.3948 16.4976ZM67.3556 15.652C68.3533 15.652 69.2631 15.8926 70.0901 16.3723L70.341 15.9397C69.4347 15.4141 68.4379 15.152 67.3556 15.152V15.652ZM70.0901 16.3723C70.92 16.8536 71.5353 17.4795 71.9448 18.2494L72.3863 18.0146C71.9292 17.1552 71.2444 16.4637 70.341 15.9397L70.0901 16.3723ZM72.4156 18.132V16.52H71.9156V18.132H72.4156ZM72.4156 16.52C72.4156 16.3506 72.4658 16.2205 72.5604 16.1141L72.1867 15.7819C72.004 15.9875 71.9156 16.2387 71.9156 16.52H72.4156ZM72.5503 16.1248C72.6583 16.0168 72.7849 15.964 72.9456 15.964V15.464C72.6555 15.464 72.4008 15.5672 72.1968 15.7712L72.5503 16.1248ZM67.5376 28.054C68.4847 28.054 69.3391 27.8073 70.0931 27.3108L69.8181 26.8932C69.1507 27.3327 68.3931 27.554 67.5376 27.554V28.054ZM70.0942 27.31C70.8617 26.7984 71.454 26.1043 71.871 25.234L71.4201 25.018C71.0398 25.8117 70.5054 26.435 69.8169 26.894L70.0942 27.31ZM71.8701 25.236C72.3045 24.3491 72.5196 23.3663 72.5196 22.292H72.0196C72.0196 23.2977 71.8187 24.2042 71.421 25.016L71.8701 25.236ZM72.5196 22.292C72.5196 21.2511 72.3039 20.2937 71.8692 19.4242L71.422 19.6478C71.8192 20.4423 72.0196 21.3223 72.0196 22.292H72.5196ZM71.871 19.428C71.4537 18.557 70.8603 17.8704 70.0908 17.3757L69.8204 17.7963C70.5068 18.2376 71.0401 18.8509 71.4201 19.644L71.871 19.428ZM70.0966 17.3795C69.3423 16.8645 68.4867 16.608 67.5376 16.608V17.108C68.3911 17.108 69.1475 17.3369 69.8146 17.7924L70.0966 17.3795ZM67.5376 16.608C66.5904 16.608 65.7284 16.8547 64.9584 17.3497L65.2288 17.7703C65.9147 17.3293 66.6821 17.108 67.5376 17.108V16.608ZM64.9561 17.3512C64.2053 17.8456 63.6137 18.5306 63.18 19.3982L63.6272 19.6218C64.0254 18.8254 64.5605 18.2104 65.2311 17.7688L64.9561 17.3512ZM63.179 19.4001C62.7613 20.2537 62.5556 21.2195 62.5556 22.292H63.0556C63.0556 21.2845 63.2485 20.3956 63.6281 19.6199L63.179 19.4001ZM62.5556 22.292C62.5556 23.3647 62.7614 24.3462 63.1773 25.2322L63.6299 25.0198C63.2484 24.2071 63.0556 23.2993 63.0556 22.292H62.5556ZM63.1781 25.234C63.5944 26.1027 64.177 26.7965 64.9266 27.3085L65.2086 26.8955C64.5368 26.4368 64.0101 25.8133 63.629 25.018L63.1781 25.234ZM64.9324 27.3123C65.7032 27.8078 66.574 28.054 67.5376 28.054V27.554C66.6637 27.554 65.8879 27.3322 65.2028 26.8917L64.9324 27.3123ZM77.0422 26.894L76.8293 27.025L76.837 27.0376L76.8461 27.0491L77.0422 26.894ZM77.1722 25.802L77.2907 26.0221L77.323 26.0047L77.349 25.9788L77.1722 25.802ZM78.1602 25.906L78.3596 25.7552L78.3492 25.7414L78.337 25.7292L78.1602 25.906ZM84.4002 27.362L84.5332 27.5737L84.5348 27.5727L84.4002 27.362ZM84.4782 24.008L84.6124 23.7971L84.4782 24.008ZM82.0862 23.072L82.1478 22.8297L82.1475 22.8296L82.0862 23.072ZM78.7062 21.668L78.5596 21.8706L78.5625 21.8726L78.7062 21.668ZM78.0822 17.196L78.2852 17.3419L78.2873 17.3389L78.0822 17.196ZM79.6942 15.87L79.5916 15.642L79.5894 15.643L79.6942 15.87ZM84.2702 15.844L84.1782 16.0766L84.1848 16.0789L84.2702 15.844ZM86.2202 17.196L86.0307 17.3591L86.047 17.378L86.0667 17.3933L86.2202 17.196ZM86.1942 18.262L86.3569 18.4519L86.3614 18.4478L86.1942 18.262ZM85.2582 18.21L85.0713 18.3761L85.0762 18.3816L85.0814 18.3868L85.2582 18.21ZM79.8242 17.352L79.6884 17.1421L79.6855 17.144L79.8242 17.352ZM78.9662 19.068H78.7159L78.7165 19.0805L78.9662 19.068ZM79.9022 20.654L79.7708 20.8667L79.7736 20.8684L79.9022 20.654ZM82.5542 21.642L82.4927 21.8843L82.4936 21.8845L82.5542 21.642ZM86.2202 23.566L86.0177 23.7127L86.021 23.7171L86.2202 23.566ZM85.4402 28.272L85.5877 28.4739L85.5902 28.472L85.4402 28.272ZM77.2551 26.763C77.1257 26.5528 77.0842 26.4097 77.0842 26.322H76.5842C76.5842 26.5463 76.6813 26.7846 76.8293 27.025L77.2551 26.763ZM77.0842 26.322C77.0842 26.2029 77.133 26.1071 77.2907 26.0221L77.0537 25.5819C76.7607 25.7396 76.5842 25.9904 76.5842 26.322H77.0842ZM77.349 25.9788C77.3978 25.93 77.4684 25.896 77.5882 25.896V25.396C77.3613 25.396 77.1546 25.466 76.9954 25.6252L77.349 25.9788ZM77.5882 25.896C77.7181 25.896 77.848 25.9473 77.9834 26.0828L78.337 25.7292C78.1258 25.518 77.8742 25.396 77.5882 25.396V25.896ZM77.9608 26.0568C79.0308 27.4714 80.4654 28.184 82.2422 28.184V27.684C80.6217 27.684 79.3349 27.0446 78.3596 25.7552L77.9608 26.0568ZM82.2422 28.184C83.1135 28.184 83.8806 27.9839 84.5332 27.5737L84.2671 27.1503C83.7064 27.5028 83.0348 27.684 82.2422 27.684V28.184ZM84.5348 27.5727C85.2313 27.1277 85.5862 26.476 85.5862 25.646H85.0862C85.0862 26.3067 84.8171 26.799 84.2656 27.1513L84.5348 27.5727ZM85.5862 25.646C85.5862 24.8401 85.2627 24.2109 84.6124 23.7971L84.344 24.2189C84.8377 24.5331 85.0862 24.9959 85.0862 25.646H85.5862ZM84.6124 23.7971C84.0092 23.4132 83.1835 23.093 82.1478 22.8297L82.0246 23.3143C83.0342 23.571 83.8032 23.8748 84.344 24.2189L84.6124 23.7971ZM82.1475 22.8296C80.7253 22.4698 79.6305 22.0115 78.8498 21.4634L78.5625 21.8726C79.4112 22.4685 80.5698 22.9462 82.0249 23.3144L82.1475 22.8296ZM78.8527 21.4654C78.1116 20.9293 77.7342 20.1516 77.7342 19.094H77.2342C77.2342 20.2897 77.6715 21.228 78.5597 21.8706L78.8527 21.4654ZM77.7342 19.094C77.7342 18.4334 77.9184 17.8523 78.2852 17.3419L77.8792 17.0501C77.4487 17.6491 77.2342 18.3332 77.2342 19.094H77.7342ZM78.2873 17.3389C78.6588 16.8059 79.1604 16.3917 79.799 16.097L79.5894 15.643C78.8759 15.9723 78.3029 16.4421 77.8771 17.0531L78.2873 17.3389ZM79.7968 16.098C80.4536 15.8024 81.198 15.652 82.0342 15.652V15.152C81.1371 15.152 80.3214 15.3136 79.5916 15.642L79.7968 16.098ZM82.0342 15.652C82.7458 15.652 83.46 15.7925 84.1783 16.0765L84.3621 15.6115C83.5897 15.3062 82.8133 15.152 82.0342 15.152V15.652ZM84.1848 16.0789C84.9066 16.3414 85.5209 16.7671 86.0307 17.3591L86.4096 17.0329C85.8448 16.3769 85.1592 15.9012 84.3556 15.6091L84.1848 16.0789ZM86.0667 17.3933C86.1527 17.4603 86.2042 17.5555 86.2042 17.716H86.7042C86.7042 17.4258 86.5996 17.1744 86.3737 16.9987L86.0667 17.3933ZM86.2042 17.716C86.2042 17.8441 86.1547 17.9612 86.0269 18.0762L86.3614 18.4478C86.5803 18.2508 86.7042 18.0039 86.7042 17.716H86.2042ZM86.0315 18.0722C85.9639 18.1301 85.8693 18.168 85.7262 18.168V18.668C85.9645 18.668 86.1818 18.6019 86.3569 18.4518L86.0315 18.0722ZM85.7262 18.168C85.6281 18.168 85.5335 18.1317 85.435 18.0332L85.0814 18.3868C85.2603 18.5656 85.4776 18.668 85.7262 18.668V18.168ZM85.445 18.0439C85.0046 17.5484 84.4802 17.1711 83.8738 16.9139L83.6786 17.3741C84.2162 17.6022 84.6798 17.9356 85.0713 18.3761L85.445 18.0439ZM83.8738 16.9139C83.2691 16.6573 82.6204 16.53 81.9302 16.53V17.03C82.5574 17.03 83.1393 17.1454 83.6786 17.3741L83.8738 16.9139ZM81.9302 16.53C81.0752 16.53 80.3243 16.7306 79.6884 17.1421L79.96 17.5619C80.5027 17.2107 81.1558 17.03 81.9302 17.03V16.53ZM79.6855 17.144C79.0355 17.5774 78.7162 18.2325 78.7162 19.068H79.2162C79.2162 18.3782 79.4689 17.8893 79.9629 17.56L79.6855 17.144ZM78.7165 19.0805C78.7553 19.8557 79.1113 20.4594 79.7708 20.8667L80.0336 20.4413C79.5144 20.1206 79.2464 19.6669 79.2159 19.0555L78.7165 19.0805ZM79.7736 20.8684C80.4106 21.2506 81.3217 21.5872 82.4927 21.8843L82.6157 21.3997C81.464 21.1075 80.6071 20.7854 80.0308 20.4396L79.7736 20.8684ZM82.4936 21.8845C83.3852 22.1074 84.1139 22.354 84.6837 22.6222L84.8966 22.1698C84.2879 21.8833 83.5259 21.6272 82.6148 21.3995L82.4936 21.8845ZM84.6837 22.6222C85.2368 22.8825 85.6797 23.2459 86.0177 23.7126L86.4227 23.4194C86.0327 22.8808 85.5222 22.4642 84.8966 22.1698L84.6837 22.6222ZM86.021 23.7171C86.3602 24.1642 86.5422 24.7732 86.5422 25.568H87.0422C87.0422 24.6988 86.8428 23.9731 86.4194 23.4149L86.021 23.7171ZM86.5422 25.568C86.5422 26.616 86.1286 27.4432 85.2902 28.072L85.5902 28.472C86.5545 27.7488 87.0422 26.7734 87.0422 25.568H86.5422ZM85.2927 28.0702C84.442 28.6918 83.3785 29.01 82.0862 29.01V29.51C83.4632 29.51 84.6357 29.1695 85.5877 28.4738L85.2927 28.0702ZM82.0862 29.01C80.0434 29.01 78.4361 28.2528 77.2382 26.7389L76.8461 27.0491C78.1443 28.6899 79.8996 29.51 82.0862 29.51V29.01ZM100.514 27.622L100.7 27.4547L100.696 27.4512L100.514 27.622ZM100.462 28.792L100.618 28.9872L100.62 28.9855L100.462 28.792ZM99.3957 28.714L99.5892 28.5557L99.5835 28.5488L99.5774 28.5423L99.3957 28.714ZM93.6497 22.63L93.8314 22.4583L93.6682 22.2855L93.4874 22.4398L93.6497 22.63ZM91.6997 24.294L91.5374 24.1038L91.4497 24.1787V24.294H91.6997ZM91.4657 28.792L91.2889 28.6152L91.4657 28.792ZM90.3477 28.792L90.1608 28.9581L90.1706 28.9691L90.1816 28.9789L90.3477 28.792ZM90.3477 9.994L90.5245 10.1708V10.1708L90.3477 9.994ZM91.4657 9.994L91.2788 10.1601L91.2886 10.1711L91.2996 10.1809L91.4657 9.994ZM91.6997 22.396H91.4497V22.9414L91.8629 22.5854L91.6997 22.396ZM99.2137 15.922L99.3769 16.1114L99.3889 16.101L99.3995 16.0892L99.2137 15.922ZM100.28 15.922L100.094 16.0895L100.103 16.0988L100.28 15.922ZM100.228 17.04L100.39 17.2305L100.397 17.224L100.404 17.2168L100.228 17.04ZM94.8717 21.59L94.7098 21.3995L94.51 21.5693L94.6891 21.7608L94.8717 21.59ZM100.328 27.7892C100.444 27.9184 100.498 28.0588 100.498 28.22H100.998C100.998 27.9306 100.895 27.6722 100.7 27.4548L100.328 27.7892ZM100.498 28.22C100.498 28.3627 100.442 28.485 100.303 28.5985L100.62 28.9855C100.863 28.787 100.998 28.5279 100.998 28.22H100.498ZM100.306 28.5968C100.158 28.7146 100.047 28.75 99.9677 28.75V29.25C100.2 29.25 100.419 29.1467 100.618 28.9872L100.306 28.5968ZM99.9677 28.75C99.825 28.75 99.7027 28.6945 99.5892 28.5557L99.2022 28.8723C99.4006 29.1148 99.6598 29.25 99.9677 29.25V28.75ZM99.5774 28.5423L93.8314 22.4583L93.4679 22.8017L99.2139 28.8857L99.5774 28.5423ZM93.4874 22.4398L91.5374 24.1038L91.862 24.4842L93.812 22.8202L93.4874 22.4398ZM91.4497 24.294V28.22H91.9497V24.294H91.4497ZM91.4497 28.22C91.4497 28.3806 91.3969 28.5072 91.2889 28.6152L91.6425 28.9688C91.8465 28.7648 91.9497 28.51 91.9497 28.22H91.4497ZM91.2889 28.6152C91.2042 28.6999 91.0894 28.75 90.9197 28.75V29.25C91.2006 29.25 91.4498 29.1614 91.6425 28.9688L91.2889 28.6152ZM90.9197 28.75C90.7503 28.75 90.6202 28.6998 90.5138 28.6051L90.1816 28.9789C90.3872 29.1616 90.6384 29.25 90.9197 29.25V28.75ZM90.5345 28.6259C90.4399 28.5195 90.3897 28.3894 90.3897 28.22H89.8897C89.8897 28.5013 89.9781 28.7525 90.1608 28.9581L90.5345 28.6259ZM90.3897 28.22V10.54H89.8897V28.22H90.3897ZM90.3897 10.54C90.3897 10.3702 90.4398 10.2555 90.5245 10.1708L90.1709 9.81722C89.9783 10.0098 89.8897 10.2591 89.8897 10.54H90.3897ZM90.5245 10.1708C90.6325 10.0628 90.7591 10.01 90.9197 10.01V9.51C90.6296 9.51 90.3749 9.61323 90.1709 9.81722L90.5245 10.1708ZM90.9197 10.01C91.08 10.01 91.1917 10.0621 91.2788 10.1601L91.6525 9.82791C91.4623 9.61393 91.21 9.51 90.9197 9.51V10.01ZM91.2996 10.1809C91.3976 10.268 91.4497 10.3797 91.4497 10.54H91.9497C91.9497 10.2497 91.8458 9.99735 91.6318 9.80715L91.2996 10.1809ZM91.4497 10.54V22.396H91.9497V10.54H91.4497ZM91.8629 22.5854L99.3769 16.1114L99.0505 15.7326L91.5365 22.2066L91.8629 22.5854ZM99.3995 16.0892C99.5145 15.9615 99.6316 15.912 99.7597 15.912V15.412C99.4718 15.412 99.2249 15.5358 99.0279 15.7548L99.3995 16.0892ZM99.7597 15.912C99.864 15.912 99.9738 15.9559 100.094 16.0892L100.466 15.7548C100.274 15.5415 100.037 15.412 99.7597 15.412V15.912ZM100.103 16.0988C100.22 16.2159 100.264 16.3281 100.264 16.442H100.764C100.764 16.1745 100.651 15.9401 100.456 15.7452L100.103 16.0988ZM100.264 16.442C100.264 16.5657 100.209 16.7049 100.051 16.8632L100.404 17.2168C100.628 16.9937 100.764 16.7343 100.764 16.442H100.264ZM100.066 16.8495L94.7098 21.3995L95.0335 21.7805L100.39 17.2305L100.066 16.8495ZM94.6891 21.7608L100.331 27.7928L100.696 27.4512L95.0543 21.4192L94.6891 21.7608ZM117.886 11.034L117.699 11.2001L117.709 11.2111L117.72 11.2209L117.886 11.034ZM118.12 28.194L118.369 28.2118L118.37 28.2029V28.194H118.12ZM117.86 28.792L118.026 28.9789L118.031 28.974L118.037 28.9688L117.86 28.792ZM116.482 20.446H116.732V20.196H116.482V20.446ZM105.926 20.446V20.196H105.676V20.446H105.926ZM105.926 28.194L106.175 28.2132L106.176 28.2036V28.194H105.926ZM105.666 28.766L105.489 28.5892L105.666 28.766ZM104.496 28.792L104.309 28.9581L104.319 28.9691L104.33 28.9789L104.496 28.792ZM104.522 11.034L104.688 11.2209L104.693 11.216L104.699 11.2108L104.522 11.034ZM105.692 11.034L105.515 11.2108L105.692 11.034ZM105.926 18.938H105.676V19.188H105.926V18.938ZM116.482 18.938V19.188H116.732V18.938H116.482ZM116.716 11.034L116.548 10.8479L116.539 10.8572L116.716 11.034ZM117.314 11.05C117.498 11.05 117.616 11.1063 117.699 11.2001L118.073 10.8679C117.879 10.6497 117.615 10.55 117.314 10.55V11.05ZM117.72 11.2209C117.813 11.3042 117.87 11.4219 117.87 11.606H118.37C118.37 11.3047 118.27 11.0411 118.052 10.8471L117.72 11.2209ZM117.87 11.606V28.194H118.37V11.606H117.87ZM117.87 28.1762C117.857 28.3655 117.792 28.5062 117.683 28.6152L118.037 28.9688C118.24 28.7658 118.348 28.5078 118.369 28.2118L117.87 28.1762ZM117.694 28.6051C117.587 28.6998 117.457 28.75 117.288 28.75V29.25C117.569 29.25 117.82 29.1616 118.026 28.9789L117.694 28.6051ZM117.288 28.75C117.127 28.75 117.001 28.6972 116.893 28.5892L116.539 28.9428C116.743 29.1468 116.998 29.25 117.288 29.25V28.75ZM116.893 28.5892C116.785 28.4812 116.732 28.3546 116.732 28.194H116.232C116.232 28.484 116.335 28.7388 116.539 28.9428L116.893 28.5892ZM116.732 28.194V20.446H116.232V28.194H116.732ZM116.482 20.196H105.926V20.696H116.482V20.196ZM105.676 20.446V28.194H106.176V20.446H105.676ZM105.676 28.1748C105.664 28.3422 105.602 28.4765 105.489 28.5892L105.843 28.9428C106.042 28.7435 106.153 28.4964 106.175 28.2132L105.676 28.1748ZM105.489 28.5892C105.381 28.6972 105.254 28.75 105.094 28.75V29.25C105.384 29.25 105.639 29.1468 105.843 28.9428L105.489 28.5892ZM105.094 28.75C104.902 28.75 104.765 28.6966 104.662 28.6051L104.33 28.9789C104.539 29.1647 104.8 29.25 105.094 29.25V28.75ZM104.683 28.6259C104.591 28.523 104.538 28.386 104.538 28.194H104.038C104.038 28.4873 104.123 28.749 104.309 28.9581L104.683 28.6259ZM104.538 28.194V11.606H104.038V28.194H104.538ZM104.538 11.606C104.538 11.4219 104.594 11.3042 104.688 11.2209L104.356 10.8471C104.137 11.0411 104.038 11.3047 104.038 11.606H104.538ZM104.699 11.2108C104.803 11.1066 104.936 11.05 105.12 11.05V10.55C104.818 10.55 104.553 10.6494 104.345 10.8572L104.699 11.2108ZM105.12 11.05C105.28 11.05 105.407 11.1028 105.515 11.2108L105.869 10.8572C105.665 10.6532 105.41 10.55 105.12 10.55V11.05ZM105.515 11.2108C105.623 11.3188 105.676 11.4454 105.676 11.606H106.176C106.176 11.316 106.073 11.0612 105.869 10.8572L105.515 11.2108ZM105.676 11.606V18.938H106.176V11.606H105.676ZM105.926 19.188H116.482V18.688H105.926V19.188ZM116.732 18.938V11.606H116.232V18.938H116.732ZM116.732 11.606C116.732 11.4454 116.785 11.3188 116.893 11.2108L116.539 10.8572C116.335 11.0612 116.232 11.316 116.232 11.606H116.732ZM116.883 11.2198C117.012 11.1036 117.153 11.05 117.314 11.05V10.55C117.024 10.55 116.766 10.6524 116.549 10.8482L116.883 11.2198ZM123.885 28.792L123.708 28.6152L123.885 28.792ZM122.767 28.792L122.58 28.9581L122.59 28.9691L122.601 28.9789L122.767 28.792ZM122.767 15.714L122.59 15.5372V15.5372L122.767 15.714ZM123.885 15.714L123.698 15.8801L123.708 15.8911L123.719 15.9009L123.885 15.714ZM122.533 13.504L122.364 13.6892L122.374 13.6975L122.533 13.504ZM122.533 11.814L122.691 12.0075L122.693 12.0061L122.533 11.814ZM124.119 13.504L124.286 13.6898L124.287 13.689L124.119 13.504ZM123.869 28.22C123.869 28.3806 123.816 28.5072 123.708 28.6152L124.061 28.9688C124.265 28.7648 124.369 28.51 124.369 28.22H123.869ZM123.708 28.6152C123.623 28.6999 123.508 28.75 123.339 28.75V29.25C123.62 29.25 123.869 29.1614 124.061 28.9688L123.708 28.6152ZM123.339 28.75C123.169 28.75 123.039 28.6998 122.933 28.6051L122.601 28.9789C122.806 29.1616 123.057 29.25 123.339 29.25V28.75ZM122.953 28.6259C122.859 28.5195 122.809 28.3894 122.809 28.22H122.309C122.309 28.5013 122.397 28.7525 122.58 28.9581L122.953 28.6259ZM122.809 28.22V16.26H122.309V28.22H122.809ZM122.809 16.26C122.809 16.0903 122.859 15.9755 122.943 15.8908L122.59 15.5372C122.397 15.7298 122.309 15.9791 122.309 16.26H122.809ZM122.943 15.8908C123.051 15.7828 123.178 15.73 123.339 15.73V15.23C123.049 15.23 122.794 15.3332 122.59 15.5372L122.943 15.8908ZM123.339 15.73C123.499 15.73 123.611 15.7821 123.698 15.8801L124.071 15.5479C123.881 15.3339 123.629 15.23 123.339 15.23V15.73ZM123.719 15.9009C123.817 15.988 123.869 16.0997 123.869 16.26H124.369C124.369 15.9697 124.265 15.7173 124.051 15.5271L123.719 15.9009ZM123.869 16.26V28.22H124.369V16.26H123.869ZM123.339 13.488C123.027 13.488 122.822 13.4176 122.691 13.3105L122.374 13.6975C122.625 13.9024 122.957 13.988 123.339 13.988V13.488ZM122.701 13.319C122.573 13.2029 122.497 13.0337 122.497 12.776H121.997C121.997 13.1423 122.111 13.4584 122.364 13.689L122.701 13.319ZM122.497 12.776V12.516H121.997V12.776H122.497ZM122.497 12.516C122.497 12.2573 122.573 12.1038 122.691 12.0075L122.374 11.6205C122.111 11.8362 121.997 12.1507 121.997 12.516H122.497ZM122.693 12.0061C122.844 11.8796 123.06 11.804 123.365 11.804V11.304C122.976 11.304 122.637 11.4017 122.373 11.6219L122.693 12.0061ZM123.365 11.804C123.677 11.804 123.865 11.8767 123.975 11.978C124.081 12.0759 124.155 12.2391 124.155 12.516H124.655C124.655 12.1516 124.555 11.8338 124.314 11.611C124.077 11.3916 123.745 11.304 123.365 11.304V11.804ZM124.155 12.516V12.776H124.655V12.516H124.155ZM124.155 12.776C124.155 13.0337 124.078 13.2029 123.95 13.319L124.287 13.689C124.54 13.4584 124.655 13.1423 124.655 12.776H124.155ZM123.951 13.3182C123.842 13.4167 123.653 13.488 123.339 13.488V13.988C123.718 13.988 124.049 13.9033 124.286 13.6898L123.951 13.3182ZM138.207 15.454L138.182 15.7028L138.195 15.704H138.207V15.454ZM138.701 15.636L138.548 15.8333L138.548 15.8333L138.701 15.636ZM138.831 16.546L138.608 16.4342L138.604 16.441L138.601 16.448L138.831 16.546ZM133.735 28.506L133.959 28.6178L133.962 28.611L133.965 28.604L133.735 28.506ZM133.423 28.87L133.569 29.0735L133.573 29.07L133.423 28.87ZM133.033 29V28.75H133.021L133.008 28.7512L133.033 29ZM132.565 28.896L132.433 29.108L132.565 28.896ZM132.253 28.506L132.485 28.4131L132.483 28.4076L132.253 28.506ZM127.131 16.546H126.881V16.5973L126.901 16.6444L127.131 16.546ZM127.079 16.39L126.837 16.4506L126.843 16.4773L126.856 16.5018L127.079 16.39ZM127.261 15.662L127.438 15.8388L127.443 15.8336L127.448 15.8281L127.261 15.662ZM128.275 15.584L128.112 15.7738L128.127 15.786L128.143 15.796L128.275 15.584ZM128.587 15.948L128.818 15.8512L128.816 15.8465L128.587 15.948ZM133.007 26.478L132.777 26.5748L133.007 27.1223L133.238 26.5752L133.007 26.478ZM137.453 15.948L137.225 15.8464L137.223 15.8508L137.453 15.948ZM137.739 15.584L137.885 15.7875L137.889 15.784L137.739 15.584ZM138.207 15.704C138.317 15.704 138.429 15.7411 138.548 15.8333L138.855 15.4387C138.661 15.2882 138.444 15.204 138.207 15.204V15.704ZM138.548 15.8333C138.645 15.9093 138.685 15.9937 138.685 16.104H139.185C139.185 15.833 139.069 15.6053 138.855 15.4387L138.548 15.8333ZM138.685 16.104C138.685 16.2214 138.659 16.3305 138.608 16.4342L139.055 16.6578C139.142 16.4842 139.185 16.2986 139.185 16.104H138.685ZM138.601 16.448L133.505 28.408L133.965 28.604L139.061 16.644L138.601 16.448ZM133.512 28.3942C133.462 28.4942 133.385 28.5865 133.273 28.67L133.573 29.07C133.739 28.9455 133.87 28.7951 133.959 28.6178L133.512 28.3942ZM133.278 28.6666C133.196 28.7254 133.116 28.75 133.033 28.75V29.25C133.228 29.25 133.408 29.188 133.568 29.0734L133.278 28.6666ZM133.008 28.7512C132.886 28.7635 132.786 28.7393 132.698 28.684L132.433 29.108C132.621 29.226 132.833 29.2712 133.058 29.2488L133.008 28.7512ZM132.698 28.684C132.61 28.6294 132.538 28.5445 132.485 28.4132L132.021 28.5988C132.107 28.8142 132.243 28.9893 132.433 29.108L132.698 28.684ZM132.483 28.4076L127.361 16.4476L126.901 16.6444L132.023 28.6044L132.483 28.4076ZM127.381 16.546C127.381 16.4476 127.338 16.3495 127.303 16.2782L126.856 16.5018C126.87 16.5298 126.877 16.5488 126.881 16.5601C126.883 16.5655 126.883 16.5672 126.883 16.5658C126.883 16.5646 126.881 16.5576 126.881 16.546H127.381ZM127.322 16.3294C127.309 16.2793 127.303 16.2303 127.303 16.182H126.803C126.803 16.2724 126.815 16.3621 126.837 16.4506L127.322 16.3294ZM127.303 16.182C127.303 16.0358 127.349 15.9275 127.438 15.8388L127.084 15.4852C126.896 15.6738 126.803 15.9122 126.803 16.182H127.303ZM127.448 15.8281C127.528 15.7381 127.652 15.678 127.859 15.678V15.178C127.547 15.178 127.272 15.2739 127.074 15.4959L127.448 15.8281ZM127.859 15.678C127.954 15.678 128.035 15.7076 128.112 15.7738L128.438 15.3942C128.272 15.2524 128.076 15.178 127.859 15.178V15.678ZM128.143 15.796C128.237 15.855 128.309 15.937 128.359 16.0495L128.816 15.8465C128.727 15.647 128.591 15.4863 128.408 15.372L128.143 15.796ZM128.357 16.0448L132.777 26.5748L133.238 26.3812L128.818 15.8512L128.357 16.0448ZM133.238 26.5752L137.684 16.0452L137.223 15.8508L132.777 26.3808L133.238 26.5752ZM137.682 16.0495C137.736 15.9283 137.804 15.8446 137.884 15.7874L137.594 15.3806C137.431 15.4967 137.31 15.6557 137.225 15.8465L137.682 16.0495ZM137.889 15.784C137.977 15.7178 138.071 15.6916 138.182 15.7028L138.232 15.2052C137.997 15.1817 137.778 15.2422 137.589 15.384L137.889 15.784ZM153.038 21.59H153.288L153.288 21.5866L153.038 21.59ZM152.804 22.136L152.97 22.3229L152.976 22.318L152.981 22.3128L152.804 22.136ZM142.43 22.344V22.094H142.18V22.344H142.43ZM143.054 25.152L142.83 25.2638L142.833 25.2694L143.054 25.152ZM144.874 27.102L144.742 27.3143L144.747 27.3176L144.874 27.102ZM149.918 27.284L150.034 27.5052L149.918 27.284ZM151.504 25.958L151.346 25.7645L151.322 25.7841L151.303 25.809L151.504 25.958ZM152.518 25.932L152.695 25.7552L152.518 25.932ZM152.466 26.946L152.289 26.7692L152.28 26.7779L152.273 26.7874L152.466 26.946ZM150.36 28.61L150.246 28.3873L150.244 28.3883L150.36 28.61ZM144.172 28.402L144.05 28.6202L144.172 28.402ZM141.78 26.01L141.561 26.1305L141.562 26.132L141.78 26.01ZM141.754 18.704L141.533 18.5865L141.533 18.5879L141.754 18.704ZM144.016 16.26L144.143 16.4751L144.146 16.4733L144.016 16.26ZM149.918 16.13L149.799 16.3501L149.801 16.351L149.918 16.13ZM152.154 18.262L151.941 18.3924V18.3924L152.154 18.262ZM144.198 17.95L144.042 17.7548L144.04 17.7563L144.198 17.95ZM142.56 20.94L142.314 20.8941L142.259 21.19H142.56V20.94ZM151.426 20.94V21.19H151.676V20.94H151.426ZM151.426 20.732H151.676V20.7182L151.674 20.7044L151.426 20.732ZM150.646 18.704L150.445 18.8521L150.447 18.855L150.646 18.704ZM149.008 17.378L148.899 17.6029L148.906 17.6062L149.008 17.378ZM152.788 21.59C152.788 21.7274 152.739 21.847 152.627 21.9592L152.981 22.3128C153.18 22.113 153.288 21.8686 153.288 21.59H152.788ZM152.638 21.9491C152.527 22.0473 152.404 22.094 152.258 22.094V22.594C152.527 22.594 152.768 22.502 152.97 22.3229L152.638 21.9491ZM152.258 22.094H142.43V22.594H152.258V22.094ZM142.18 22.344C142.18 23.4182 142.395 24.3932 142.83 25.2638L143.278 25.0402C142.881 24.2468 142.68 23.3498 142.68 22.344H142.18ZM142.833 25.2694C143.287 26.1228 143.924 26.8056 144.742 27.3143L145.006 26.8897C144.264 26.4278 143.687 25.8106 143.275 25.0346L142.833 25.2694ZM144.747 27.3176C145.589 27.8116 146.57 28.054 147.682 28.054V27.554C146.644 27.554 145.754 27.3284 145.001 26.8864L144.747 27.3176ZM147.682 28.054C148.55 28.054 149.336 27.8729 150.034 27.5052L149.802 27.0628C149.183 27.3884 148.478 27.554 147.682 27.554V28.054ZM150.034 27.5052C150.722 27.1431 151.281 26.6776 151.705 26.107L151.303 25.809C150.929 26.313 150.431 26.7316 149.802 27.0628L150.034 27.5052ZM151.662 26.1515C151.827 26.0169 151.954 25.974 152.05 25.974V25.474C151.799 25.474 151.563 25.5871 151.346 25.7645L151.662 26.1515ZM152.05 25.974C152.148 25.974 152.243 26.0103 152.341 26.1088L152.695 25.7552C152.516 25.5764 152.299 25.474 152.05 25.474V25.974ZM152.341 26.1088C152.44 26.2073 152.476 26.3019 152.476 26.4H152.976C152.976 26.1514 152.874 25.9341 152.695 25.7552L152.341 26.1088ZM152.476 26.4C152.476 26.5069 152.43 26.6288 152.289 26.7692L152.643 27.1228C152.849 26.9166 152.976 26.6745 152.976 26.4H152.476ZM152.273 26.7874C151.742 27.4345 151.068 27.9682 150.246 28.3873L150.474 28.8327C151.351 28.3851 152.081 27.8095 152.659 27.1046L152.273 26.7874ZM150.244 28.3883C149.448 28.8031 148.604 29.01 147.708 29.01V29.51C148.684 29.51 149.608 29.2836 150.475 28.8317L150.244 28.3883ZM147.708 29.01C146.41 29.01 145.274 28.7322 144.294 28.1838L144.05 28.6202C145.115 29.2158 146.337 29.51 147.708 29.51V29.01ZM144.294 28.1838C143.312 27.6344 142.548 26.8703 141.998 25.888L141.562 26.132C142.156 27.195 142.987 28.0256 144.05 28.6202L144.294 28.1838ZM141.999 25.8895C141.45 24.8913 141.172 23.7378 141.172 22.422H140.672C140.672 23.8102 140.966 25.0487 141.561 26.1305L141.999 25.8895ZM141.172 22.422C141.172 21.0335 141.443 19.8354 141.975 18.8201L141.533 18.5879C140.956 19.6872 140.672 20.9679 140.672 22.422H141.172ZM141.975 18.8215C142.528 17.7823 143.251 17.0037 144.143 16.4751L143.889 16.0449C142.909 16.6257 142.124 17.4763 141.533 18.5865L141.975 18.8215ZM144.146 16.4733C145.045 15.9244 145.996 15.652 147.006 15.652V15.152C145.901 15.152 144.859 15.4516 143.886 16.0467L144.146 16.4733ZM147.006 15.652C148.005 15.652 148.935 15.8847 149.799 16.3501L150.036 15.9099C149.098 15.4046 148.087 15.152 147.006 15.152V15.652ZM149.801 16.351C150.678 16.8142 151.391 17.4925 151.941 18.3924L152.367 18.1316C151.773 17.1595 150.995 16.4165 150.035 15.909L149.801 16.351ZM151.941 18.3924C152.486 19.284 152.771 20.3479 152.788 21.5934L153.288 21.5866C153.27 20.2668 152.966 19.112 152.367 18.1316L151.941 18.3924ZM147.006 16.66C145.938 16.66 144.948 17.0299 144.042 17.7548L144.354 18.1452C145.181 17.4834 146.063 17.16 147.006 17.16V16.66ZM144.04 17.7563C143.136 18.4943 142.565 19.5485 142.314 20.8941L142.806 20.9859C143.04 19.7315 143.561 18.7923 144.356 18.1437L144.04 17.7563ZM142.56 21.19H151.426V20.69H142.56V21.19ZM151.676 20.94V20.732H151.176V20.94H151.676ZM151.674 20.7044C151.583 19.8839 151.308 19.1643 150.845 18.553L150.447 18.855C150.85 19.3877 151.095 20.0201 151.177 20.7596L151.674 20.7044ZM150.847 18.5559C150.389 17.9322 149.809 17.4624 149.11 17.1498L148.906 17.6062C149.524 17.883 150.036 18.2971 150.445 18.8521L150.847 18.5559ZM149.117 17.1532C148.443 16.8251 147.738 16.66 147.006 16.66V17.16C147.66 17.16 148.29 17.3069 148.899 17.6028L149.117 17.1532Z" fill="#3F4552"></path><path d="M18 2L33.5885 11V29L18 38L2.41156 29V11L18 2Z" stroke="#FFC107" stroke-width="3" stroke-linecap="round" stroke-linejoin="round"></path><path d="M11 19L18 26L32 12" stroke="#FFC107" stroke-width="3" stroke-linecap="round" stroke-linejoin="round"></path></svg> 